<svg xmlns="http://www.w3.org/2000/svg" width="50" height="50" viewBox="0 0 50 50">
  <g id="Group_24" data-name="Group 24" transform="translate(-991 -584)">
    <rect id="Rectangle_99" data-name="Rectangle 99" width="50" height="50" rx="8" transform="translate(991 584)" fill="#f1f1f1" opacity="0"/>
    <g id="Group_23" data-name="Group 23" transform="translate(995.111 584)">
      <path id="Path_116" data-name="Path 116" d="M24.34,4.548A5.094,5.094,0,0,1,31.3,2.683l1.96,1.132a5.094,5.094,0,0,1,1.864,6.958l-.668,1.157L32.7,14.964,28.759,21.8A5.093,5.093,0,0,1,21.8,23.659l-1.96-1.132a5.094,5.094,0,0,1-1.864-6.958ZM15.368,32.032h5.065a1.7,1.7,0,0,0,0-3.4H4.587a1.7,1.7,0,0,0,0,3.4H15.368ZM29.6,5.624a1.7,1.7,0,0,0-2.319.621L20.917,17.267a1.7,1.7,0,0,0,.622,2.319l1.96,1.132a1.7,1.7,0,0,0,2.319-.621L32.182,9.075a1.7,1.7,0,0,0-.622-2.319Z" transform="translate(0 0)" fill="#2f75bb"/>
      <path id="Path_117" data-name="Path 117" d="M27.945,9.42a12.773,12.773,0,0,1-9.174,21.644h-.029a9.8,9.8,0,0,1-8.132-4.576H6.654c2.107,4.027,5.647,7.24,10.405,7.863v3.992H9.7a1.7,1.7,0,1,0,0,3.4h8.974l.082,0,.082,0h8.974a1.7,1.7,0,0,0,0-3.4H20.455V34.371A16.17,16.17,0,0,0,29.7,6.386Z" transform="translate(4.759 5.543)" fill="#facf07"/>
    </g>
  </g>
</svg>
