<svg xmlns="http://www.w3.org/2000/svg" width="50" height="50.001" viewBox="0 0 50 50.001">
  <g id="Group_19" data-name="Group 19" transform="translate(-163 -584)">
    <rect id="Rectangle_100" data-name="Rectangle 100" width="50" height="50" rx="8" transform="translate(163 584)" fill="#f1f1f1" opacity="0"/>
    <g id="Group_18" data-name="Group 18">
      <path id="Path_75" data-name="Path 75" d="M38.349,4.886a6.023,6.023,0,0,1,8.059.413l.9.9.413.457a6.025,6.025,0,0,1,0,7.6l-.413.457L37.147,24.884a10.848,10.848,0,0,1-.042,2.936l10.2,10.2a6.022,6.022,0,0,1,0,8.517l-.9.9a6.023,6.023,0,0,1-8.517,0L27.407,36.963a10.855,10.855,0,0,1-2.308-.031L14.592,47.441a6.025,6.025,0,0,1-8.062.413l-.457-.413-.9-.9a6.024,6.024,0,0,1,0-8.517L15.682,27.505a10.869,10.869,0,0,1-.034-2.3L5.163,14.723a6.025,6.025,0,0,1,0-8.519l.9-.9.457-.413a6.024,6.024,0,0,1,8.059.413L24.793,15.509a10.863,10.863,0,0,1,2.928-.044l9.735-9.732.437-.434ZM8.8,40.066l-.789.792a2.007,2.007,0,0,0,0,2.839l.9.9.154.138a2.009,2.009,0,0,0,2.687-.138l.787-.79,8.334-8.333a10.765,10.765,0,0,1-1.532-1.1l-.57-.531a10.819,10.819,0,0,1-1.639-2.112Zm26.766-8.109a10.623,10.623,0,0,1-3.835,3.652L40.72,44.6a2.008,2.008,0,0,0,2.839,0l.9-.9a2.007,2.007,0,0,0,0-2.839ZM27.956,19.574a6.847,6.847,0,0,0-2.894-.039l-.408.1a6.815,6.815,0,0,0-4.8,4.773l-.11.478a6.848,6.848,0,0,0,.047,2.855l.12.444a6.764,6.764,0,0,0,1.7,2.823l.358.335a6.747,6.747,0,0,0,2.9,1.479l.711.126a6.845,6.845,0,0,0,2.151-.076l.476-.112a6.813,6.813,0,0,0,4.776-4.8l.094-.408a6.841,6.841,0,0,0,.042-2.489l-.081-.41a6.755,6.755,0,0,0-1.48-2.9l-.337-.361a6.759,6.759,0,0,0-2.821-1.7ZM11.746,8.138A2.009,2.009,0,0,0,9.058,8l-.152.136-.9.9a2.008,2.008,0,0,0,0,2.839l.659.661L17,20.884a10.8,10.8,0,0,1,3.652-3.835L12.329,8.723Zm31.824,0A2.009,2.009,0,0,0,40.882,8l-.152.139L31.95,16.913a10.823,10.823,0,0,1,2.115,1.639l.531.57a10.792,10.792,0,0,1,1.1,1.532l8.344-8.342.434-.431.136-.152a2.007,2.007,0,0,0,0-2.536l-.136-.152Z" transform="translate(161.329 583.055)" fill="#2f75bb"/>
      <g id="Group_8" data-name="Group 8" transform="translate(163 584.494)">
        <path id="Path_76" data-name="Path 76" d="M10.442,18.947a20.794,20.794,0,0,0,18.118.123L31.086,21.6a6.012,6.012,0,0,0,.491.437,24.8,24.8,0,0,1-24.126-.125c.117-.1.235-.2.345-.311Z" transform="translate(5.125 24.405)" fill="#facf07"/>
        <path id="Path_77" data-name="Path 77" d="M21.95,7.43A24.788,24.788,0,0,1,21.832,32.1a6.083,6.083,0,0,0-.528-.612l-2.4-2.4a20.79,20.79,0,0,0,.12-18.612l2.29-2.287.413-.457C21.807,7.633,21.877,7.531,21.95,7.43Z" transform="translate(24.328 5.092)" fill="#facf07"/>
        <path id="Path_78" data-name="Path 78" d="M5.82,7.536a6.1,6.1,0,0,0,.426.476L8.785,10.55A20.8,20.8,0,0,0,8.9,28.658L6.252,31.309c-.109.109-.209.225-.308.34A24.8,24.8,0,0,1,5.82,7.536Z" transform="translate(-2.754 5.27)" fill="#facf07"/>
        <path id="Path_79" data-name="Path 79" d="M7.354,6.1a24.8,24.8,0,0,1,24.661-.12c-.1.072-.2.143-.3.222l-.457.413-.437.434L28.965,8.9a20.8,20.8,0,0,0-18.6.125L7.953,6.611A6.068,6.068,0,0,0,7.354,6.1Z" transform="translate(4.961 -2.752)" fill="#facf07"/>
      </g>
    </g>
  </g>
</svg>
