<svg xmlns="http://www.w3.org/2000/svg" xmlns:xlink="http://www.w3.org/1999/xlink" width="1366" height="600" viewBox="0 0 1366 600">
  <defs>
    <clipPath id="clip-path">
      <rect id="Rectangle_80" data-name="Rectangle 80" width="1366" height="600" transform="translate(1446 4314)" fill="#fff"/>
    </clipPath>
    <linearGradient id="linear-gradient" x1="0.5" y1="0.167" x2="0.5" y2="0.872" gradientUnits="objectBoundingBox">
      <stop offset="0" stop-color="#fff"/>
      <stop offset="0.448" stop-color="#fff" stop-opacity="0.553"/>
      <stop offset="1" stop-color="#fff" stop-opacity="0"/>
    </linearGradient>
  </defs>
  <g id="Group_6" data-name="Group 6" transform="translate(0 -4308)">
    <g id="Mask_Group_1" data-name="Mask Group 1" transform="translate(-1446 -6)" clip-path="url(#clip-path)">
      <g id="file" transform="translate(1445.472 4158.113)">
        <path id="Path_10" data-name="Path 10" d="M800.52.852C811.11.586,821.506.586,832.31.586,853.535,21.06,877.2,37.833,901.571,53.663c10.937,7.1,22.115,13.779,32.359,21.918,16.193,12.864,26.054,29.566,29.282,49.754,4.651,29.1-2.17,55.277-23.716,76.121-15.49,14.99-33.657,26.584-52.357,37.309-20.6,11.823-42.9,20.119-63.926,31.07-10.262,5.35-20.07,11.3-28.4,19.595a70.219,70.219,0,0,0-19.284,35.884,134.144,134.144,0,0,0-2.469,36.6c.848,13.842,1.342,27.839-.62,41.7-2.639,18.63-11.81,27.564-32.527,29.341-10.808.927-21.218-1.557-31.517-4.435-20.537-5.736-40.762-12.591-61.72-16.828a171.57,171.57,0,0,0-31.744-3.328c-13.2-.171-25.705,3.823-37.3,10.27-11.623,6.462-21.352,15.391-31.194,24.16-15.5,13.808-30.088,28.579-44.313,43.641-17.314,18.331-33.016,37.993-44.239,60.878-10.341,21.087-12.379,43-7.5,65.764,4.677,21.818,13.834,41.852,24.549,61.229,17.917,32.4,36.9,64.235,52.545,97.847,10.51,22.577,21.9,44.68,34.454,66.185,9.457,16.2,21.3,30.616,33.324,44.906,6,7.143,12.2,14.132,17.487,21.842,1.142,1.663,2.76,3.183,2.319,5.789-18.593.276-36.988.276-55.8.276-5.344-7.6-9.279-15.739-13.1-23.91-10.737-22.941-21.139-46.042-30.717-69.488-6.442-15.77-12.75-31.6-19.324-47.313-10.151-24.265-23.1-47.057-36.737-69.468-12.326-20.264-24.454-40.627-34.384-62.2-7.133-15.493-13.721-31.215-16.724-48.144-3.046-17.181-.035-33.49,6.954-49.336,6.638-15.053,16.339-28.132,25.642-41.508,15.225-21.888,31.309-43.219,44.84-66.229,9.275-15.772,16.891-32.382,19.053-50.843,2.47-21.09-3.3-39.839-16.862-56.222-13.816-16.7-31.9-27.648-50.625-37.7-13.056-7.01-26.775-12.689-39.912-19.549-11.728-6.126-22.857-13.119-32.546-22.238-13.824-13.009-22.678-29.118-29.125-46.7-7.083-19.312-10.012-39.573-13.654-59.693-4.647-25.67-11.794-50.541-26.637-72.479-17.557-25.947-40.977-45.338-68.143-60.514-3.091-1.726-7.116-2.409-8.284-6.748,25.4-.278,50.618-.278,76.248-.278,20.268,21.777,35.33,46.683,47.941,73.147,10.266,21.543,18.972,43.759,28.006,65.834,8.375,20.464,17.486,40.585,32,57.663a130.351,130.351,0,0,0,47.242,35.385c23.164,10.228,46.651,19.814,68.194,33.379,16.983,10.692,32.506,23.216,47.4,36.634,16.041,14.452,30.7,30.495,48.847,42.549,9.991,6.638,20.62,12.052,32.515,13.709,23.541,3.277,40.332-2.381,54.362-26.74,7.62-13.232,13.686-27.262,21.131-40.594,15.255-27.319,37.569-46.088,66.864-56.885,16.281-6,32.963-10.751,49.361-16.367,16.5-5.65,31.247-14.068,43.856-26.249,26.054-25.155,29.913-61.874,10.5-92.115-9.6-14.951-21.484-27.891-34.76-39.607-.782-.686-1.583-1.345-2.312-2.088-17.162-17.615-35.551-33.99-52.6-51.729C802.29,4.968,800.146,3.762,800.52.852Z" transform="translate(113.128 0.032)" fill="#fff"/>
        <path id="Path_11" data-name="Path 11" d="M1158.82,408.515c.258,13.875.258,27.528.258,41.6-1.7,1.624-3.157.556-4.517-.205a441.88,441.88,0,0,1-46.737-29.962c-20.1-14.763-33.008-34.879-43.109-57.179-7.327-16.194-13.276-32.991-21.439-48.821-7.567-14.681-17.189-27.655-30.722-37.434a89,89,0,0,0-40.922-16.033c-20.71-2.818-40.539,1.315-59.764,8.109-27.477,9.708-53.22,23.126-77.718,38.921a128.44,128.44,0,0,0-30.358,27.142c-12.369,15.25-17.962,33.145-19.723,52.457-1.832,20.116-.285,40.275-.9,60.4-.854,28.174-4.793,55.79-16.317,81.823C759.028,547,746.8,559.959,727.345,564.769c-11.542,2.854-22.96,1.328-34.324-1.05-14.781-3.094-28.176-9.9-41.848-15.955-18.82-8.328-37.1-17.918-56.707-24.413-12.587-4.17-25.563-6.988-38.732-7.379a113.418,113.418,0,0,0-39.745,6.266,111.127,111.127,0,0,0-55.895,41.3c-18.073,25.179-21.26,53.057-14.081,82.628,5.816,23.959,16.08,46.116,27.625,67.723,9.5,17.774,19.5,35.261,30.693,52.045a366.659,366.659,0,0,0,53.477,62.8c13.117,12.413,26.794,24.252,39.484,37.1,11.662,11.808,22.5,24.393,31.14,38.683,1.123,1.859,2.809,3.566,1.767,6.349-15.046.276-29.885.276-45.14.276-16.174-22.589-35.687-41.859-54.986-61.275-22.112-22.247-40.051-47.552-55.506-74.664-15.181-26.633-30.473-53.208-45.219-80.082-6.768-12.332-11.967-25.458-16.53-38.795a315.915,315.915,0,0,1-9.235-31.994c-6.981-30.584.242-58.066,18.86-82.493,19.282-25.3,42.794-46.007,71.979-59.355,16.229-7.422,33.24-12.918,51.393-12.563,13.559.265,26.681,3.619,39.572,7.659,17.26,5.41,33.88,12.574,50.831,18.832,16.468,6.08,33.21,11.269,50.9,11.555,28.206.458,45.706-13.22,52.811-40.584a154.553,154.553,0,0,0,4.437-34.725c.311-11.548.516-23.133-.071-34.661-.5-9.914-.5-19.82-.791-29.727-.809-26.656,10.422-47.476,30.616-64.026,14.53-11.911,31.141-20.511,47.5-29.469,27.041-14.807,53.86-29.889,78.3-48.894,20.088-15.609,30.518-36.117,32.963-61.081.9-9.127,2.259-18.258,1.779-27.435-1.138-21.957-3.432-43.829-12.227-64.246-8.563-19.885-22.133-35.546-41.758-45.538a199.264,199.264,0,0,0-35.115-13.753A246.985,246.985,0,0,1,819.228,4.38c-1.53-.64-3.61-.868-3.575-3.5,45.261-.29,90.336-.29,135.819-.29,6.58,6.209,10.448,13.949,14.147,21.65,11.115,23.1,16.077,47.913,19.456,73.116,2.863,21.4,4.775,42.906,11.951,63.6,8.554,24.64,24.16,42.542,47.7,53.4,22.213,10.244,44.808,19.558,68.434,26.134a377.389,377.389,0,0,0,39.828,9.149,14.6,14.6,0,0,1,5.815,1.717c.276,12.686.276,25.154.276,38.038-4.571,2.52-9.559,1.738-14.334,2.35-8.759,1.12-17.206,3.085-25.085,7.078-15.721,7.967-23.155,23.153-20.425,41.106,3.806,25.1,17.109,43.99,37.685,58.23C1143.757,400.884,1151.164,404.573,1158.82,408.515Z" transform="translate(207.377 0.032)" fill="#fff"/>
        <path id="Path_12" data-name="Path 12" d="M863.059,786c-58.946.24-117.653.24-176.777.24-8.11-13.018-14.459-26.72-21.172-40.245-12.387-24.969-25.174-49.761-43.757-70.868-8.814-10.013-18.644-18.871-30.482-25.566-18.478-10.447-36.128-22.241-50.6-38.047-17.415-19.022-29.384-40.788-32.33-66.854a38.3,38.3,0,0,1,1.621-15.812c3.344-10.687,13.353-16.386,25.28-14.681a65.883,65.883,0,0,1,20.69,6.458c25.12,12.763,49.147,27.41,73.065,42.26,14.112,8.765,28.5,17.14,44.585,21.788,31.238,9.026,58.857,2.019,82.617-19.9,15.792-14.566,23.84-33.66,29.851-53.734,7.594-25.365,11.311-51.428,13.89-77.714,2.276-23.107,3.717-46.28,6.02-69.387,2.348-23.568,4.4-47.189,9.043-70.418,3.308-16.555,11.382-30.613,25.245-41.1,20.407-15.446,43.563-12.887,61.987-.116,13.054,9.054,22.293,21.569,31.185,34.355,11.275,16.2,23.182,31.9,37.365,45.673,11.907,11.572,24.978,21.789,38.272,31.74,15.41,11.532,31.016,22.858,44.826,36.358,14.467,14.136,24.489,31,31.389,49.976a135.476,135.476,0,0,1,8.448,53.6c-1,19.769-6.171,38.541-14.539,56.448-9.506,20.356-23.218,37.756-38.023,54.44-10.742,12.1-22.373,23.3-33.915,34.568-13.027,12.712-26.766,24.681-40.5,36.629q-17.767,15.438-35.284,31.161c-12,10.829-23.253,22.408-34.546,33.929-10.155,10.352-19.75,21.256-29.94,31.589A27.545,27.545,0,0,1,863.059,786Z" transform="translate(262.658 124.933)" fill="#fff"/>
        <path id="Path_13" data-name="Path 13" d="M1126.38,406.124c.24,77.329.24,154.413.24,231.914-6.989,7.859-14.067,15.228-21.226,22.484q-36.173,36.668-70.035,75.443c-18.433,21.217-36.618,42.639-54.909,63.981a31.948,31.948,0,0,1-3,3.681c-27.512.222-54.8.222-82.5.222-1.69-2.161.107-3.3,1.227-4.517,12.227-13.3,24.72-26.348,37.338-39.274C952.8,740.322,973.7,722.4,994.446,704.279q16.38-14.312,32.3-29.173c8.99-8.4,17.909-16.869,26.374-25.77,17.873-18.8,35.329-37.986,47.769-61.055a160.891,160.891,0,0,0,18.5-61.233c2.845-28.536-3.7-55.049-16.246-80.3-7.274-14.636-18.176-26.574-30.251-37.477-17.864-16.114-37.845-29.506-56.688-44.355-22.355-17.608-40.62-38.8-56.67-62.123-8.4-12.207-17.073-24.27-28.98-33.457-15.241-11.752-32.216-17.126-51.237-12.151-14.316,3.745-25.04,12.976-33.63,24.843-9.737,13.453-12.956,29.009-14.939,45.031-2.116,17.037-4.144,34.086-5.931,51.159-1.227,11.765-2.054,23.571-3,35.364-1.974,24.776-3.752,49.57-8.047,74.108-3.6,20.638-8.261,40.966-16.664,60.242-13.276,30.426-35.836,49.367-69.092,53.955-15.828,2.184-30.794-2.259-45.2-8.854-20.167-9.231-38.183-22.11-57.241-33.217-13.311-7.757-26.476-15.794-40.135-22.914-10-5.213-20.456-9.466-32.1-9.365-14.6.126-24.154,8.413-25.8,22.845-2.258,19.792,3.5,37.775,13.04,54.771,13.555,24.147,33.636,41.816,56.507,56.733,10.778,7.029,22.608,12.452,32.273,21.19a154.589,154.589,0,0,1,23.52,27.111c14.5,21.042,26.356,43.587,36.983,66.784,3.272,7.152,7.5,13.794,10.831,20.908.8,1.707,2.081,3.335,1.085,5.7-15.935.267-31.665.267-47.8.267-3.406-7.238-6.526-14.414-10.127-21.386-8.223-15.915-18.985-29.92-30.987-43.169-14.806-16.347-32.179-29.66-49.186-43.467a293.889,293.889,0,0,1-77.63-95.466c-9.122-17.886-17.3-36.109-20.775-56.036-3.695-21.21-1.642-41.452,11.977-59.129,11.588-15.043,27.319-22.147,46.107-23.083,19.131-.954,36.454,5.377,53.406,13.108,21.613,9.858,41.744,22.425,62.192,34.409,18.4,10.784,37.734,19.192,58.844,23.117,16.1,2.994,31.389,1.446,44.9-8.549a73.309,73.309,0,0,0,20.621-24.133c10.315-18.838,16-39.207,19.616-60.157a644.75,644.75,0,0,0,8.359-69.176c1.138-18.034,1.334-36.069,1.734-54.119.542-24.092,6.554-46.816,21.99-65.84,18.5-22.812,42.416-37.4,71.644-41.85,37.365-5.694,65.242,10.083,86.3,40.025,7.683,10.916,14.37,22.463,21.35,33.821a242.549,242.549,0,0,0,66.914,71.53c18.113,12.86,36.609,25.221,53.291,39.989A133.027,133.027,0,0,1,1126.38,406.124Z" transform="translate(239.836 107.328)" fill="#fff"/>
        <path id="Path_14" data-name="Path 14" d="M605.466,901.634c-16.532.267-32.853.267-49.591.267-2.116-2.081-1.626-4.508-1.353-6.829A298.131,298.131,0,0,0,556.909,857c-.382-35.932-8.079-70.077-24.253-102.4-16.581-33.128-37.436-63.515-58.024-94.139-17.313-25.751-32.552-52.638-42.73-82.19-11.358-32.977-9.9-65.163,4.386-96.929,5.956-13.245,11.741-26.608,14.961-40.848,3.1-13.73,4.483-27.5-.67-41.145-4.855-12.86-13.561-22.834-23.728-31.679-11.808-10.273-25.515-17.769-38.7-26.005-13.99-8.74-27.414-18.262-39.383-29.589-12.548-11.875-21.428-26.422-28.146-42.263-10.748-25.347-15.945-52.031-18.931-79.256-1.645-15-2.274-30.128-5.318-44.964-5.976-29.131-28.627-50.707-58.126-54-15.889-1.774-30.072,3.5-41.884,14.616-11.053,10.4-18.016,23.436-23.888,37.115-9.35,21.785-18.263,43.731-31.121,63.844a448.039,448.039,0,0,1-37.432,50.193C91.29,272.112,77.4,285.676,64.152,299.84c-13.99,14.955-27.337,30.426-36.779,48.818a143.592,143.592,0,0,0-14.983,50.4c-2.886,26.272,1.188,51.989,5.667,77.7a259.954,259.954,0,0,1,3.952,38.4c.516,21.845-5.573,42.137-17.173,60.711-.853,1.366-1.652,2.9-3.961,2.552C.586,496.1.586,413.98.586,331.44c13.417-20.5,30.578-37.261,47.338-54.449,20.393-20.914,39.238-43.127,54.162-68.473,11.575-19.659,18.709-40.841,23.626-62.946,6.771-30.444,16.816-59.629,34.676-85.54,9.636-13.98,20.726-26.66,35.962-34.99,14.423-7.886,29.392-8.434,44.668-3.106,14.038,4.9,26.934,12.3,40.028,19.177,11,5.783,21.7,12.174,32.545,18.256,30.054,16.849,45.279,43.245,50.07,76.534,1.751,12.171,2.263,24.417,2.808,36.7.9,20.212,1.085,40.534,6.634,60.307a85.69,85.69,0,0,0,27.555,43.153c16.738,14.207,35.967,24.368,55.719,33.716,22.832,10.8,44.748,23.078,62.693,41.4,10.445,10.666,16.331,23.4,16.8,38.121.323,10.225-2.115,20.287-5.9,29.9-7.526,19.111-18,36.657-28.565,54.175-8.179,13.564-16.8,26.9-22.86,41.638-5.862,14.249-9.888,28.9-9.03,44.469.849,15.42,5.3,29.961,11.391,44.071,10.442,24.191,24.654,46.238,38.806,68.309,14.476,22.577,28.762,45.241,40.364,69.5,21.942,45.877,38.154,93.5,44.31,144.2C605.018,890.786,606.523,896,605.466,901.634Z" transform="translate(0.03 9.276)" fill="#fff"/>
        <path id="Path_15" data-name="Path 15" d="M665.031,910.87c-18,.276-35.805.276-54.024.276-2.578-3.637-1.71-7.8-2.229-11.684-3.975-29.724-9.507-59.12-19.346-87.5-14.561-41.992-33.275-82-57.622-119.337-15.612-23.937-31.313-47.875-43.655-73.751-6.581-13.8-12.13-27.981-14.131-43.328a84.877,84.877,0,0,1,3.125-35.556c4.381-14.757,11.451-28.221,19.336-41.343,9.306-15.488,19.138-30.667,27.524-46.7,7.873-15.05,14.68-30.522,15.837-47.731,1.05-15.618-2.861-29.905-12.84-42.326-10.974-13.659-25.474-22.9-39.921-32.208-8.858-5.706-18.354-10.219-27.9-14.659-18.43-8.569-36.3-18.128-52.433-30.682-16.917-13.168-26.7-30.608-31.19-51.28-3.09-14.234-4.012-28.706-4.4-43.214-.527-19.538-1.219-39.043-5.4-58.248a102.217,102.217,0,0,0-25.4-48.663C330.883,72.758,319.024,65.581,306.872,59c-16.8-9.1-33.407-18.576-50.719-26.687-11.048-5.175-22.414-9.24-34.915-9.3-12.8-.057-24.068,3.982-34.4,11.337-12.256,8.725-21.876,19.968-30.394,32.118-15.423,22-24.916,46.671-31.47,72.564-4.432,17.506-7.637,35.353-14.609,52.146-9.98,24.038-24.254,45.4-40.824,65.306-13.564,16.3-28.618,31.195-43.481,46.282A283.943,283.943,0,0,0,5.781,326.326c-1.228,1.555-2.061,3.748-4.914,3.465C.586,315.351.586,301.1.586,286.442c5.555-6.577,11.567-12.288,17.462-18.109a275.429,275.429,0,0,0,52.217-70.784c9.65-18.851,14.337-39.1,17.216-59.867,2.523-18.2,5.775-36.227,10.834-53.92a84.566,84.566,0,0,1,13.367-26.4c12.935-17.86,26.363-35.378,37.266-54.623a8.065,8.065,0,0,1,1.684-1.91C206.607.586,262.35.586,318.509.586c9.612,5.694,19.644,9.846,28.814,15.607,24.792,15.574,46.318,34.486,61.492,59.879,11.088,18.557,17.081,38.989,21.507,59.962,2.54,12.036,3.946,24.275,6.546,36.3,3.992,18.466,9.267,36.454,19.094,52.827,12.425,20.7,30.125,35.556,51.285,46.606,19.293,10.074,39.5,18.393,58.005,29.979,15.558,9.74,30.106,20.663,39.654,36.845,10.417,17.658,12.6,36.422,6.661,56.029-5.677,18.738-14.781,35.8-25.683,51.994-15.472,22.986-31.657,45.476-47.314,68.329-10.551,15.4-18.844,31.921-21.391,50.733a93.222,93.222,0,0,0,3.763,40.382c6.546,21.192,16.04,41.119,26.7,60.483,12.932,23.489,27.8,45.862,40.535,69.468,11.489,21.29,20.939,43.505,29.779,65.992,13.826,35.17,28.924,69.779,45.79,103.6C664.525,907.171,665.641,908.665,665.031,910.87Z" transform="translate(0.03 0.032)" fill="#fff"/>
        <path id="Path_16" data-name="Path 16" d="M549.451,875.478c-20.095.276-39.972.276-60.267.276-2.073-2.027-.919-3.921-.106-5.807A185.083,185.083,0,0,0,503.064,820.5a154.261,154.261,0,0,0-8.086-73.854c-10.781-29.757-26.905-56.689-43.284-83.509-14.132-23.141-28.384-46.218-41.01-70.23-13.764-26.179-23.314-53.775-27.067-83.24a266.852,266.852,0,0,1-1.111-51.844c1-14.9,1.875-29.814.348-44.786-1.62-15.887-8.155-29.482-17.615-42.039-9.989-13.26-22.553-23.877-34.937-34.675a196.926,196.926,0,0,1-40.532-48c-12.339-20.792-22.976-42.475-33.789-64.068a74.653,74.653,0,0,0-14.208-20.287c-14.048-13.793-29.767-15.576-46.328-4.742-12.175,7.966-23.2,17.437-34.128,27.006Q142.767,242.476,124.472,259c-20.951,18.894-41.263,38.348-55.455,63.169-11.4,19.946-17.983,41.242-17.432,64.39.309,13,3.717,25.457,7.413,37.83,5.3,17.741,10.929,35.382,13.348,53.86C77.03,514.04,69.69,546.41,46.591,574.9c-12.46,15.368-26.579,29.067-40.469,43.03-1.33,1.337-2.7,2.89-5.259,1.936-.278-18.9-.278-37.592-.278-56.7,13.893-18.458,22.6-38.671,24.381-61.445a184.261,184.261,0,0,0-.957-33.7c-2.065-19.606-6.5-38.852-8.378-58.476-3.926-41.052,5.96-78.137,31.653-110.689,12.227-15.49,26.337-29.265,39.865-43.575,22.529-23.83,43.586-48.815,60.593-77.031,9.991-16.576,17.542-34.242,24.836-52.081,5.445-13.316,11.458-26.348,20.583-37.7C208.43,69.469,233,63.745,255.2,73.851c20.851,9.5,33.268,25.5,37.973,47.747,2.151,10.17,2.871,20.51,3.813,30.828,2.915,31.953,7.514,63.51,20.158,93.407a134.255,134.255,0,0,0,40.565,53.623c13.825,11.038,28.652,20.515,43.654,29.79,11.108,6.868,21.936,14.163,30.9,23.788,8.742,9.385,15.39,20.033,17.224,32.978,1.563,11.035-.245,21.828-3.417,32.449-4.338,14.521-10.685,28.261-16.287,42.288-13.266,33.219-11.788,66.307.68,99.3,11.925,31.554,29.292,60.108,48.527,87.639,16.557,23.7,32.361,47.927,45.663,73.6,12.509,24.142,22.625,49.284,26.123,76.6a263.353,263.353,0,0,1,1.611,54.916C551.779,860.317,551.314,867.822,549.451,875.478Z" transform="translate(0.03 35.423)" fill="#fff"/>
        <path id="Path_17" data-name="Path 17" d="M122.6,799.451c-26.89.276-53.585.276-80.7.276-6.522-4.2-13.42-6.891-19.946-10.288-6.927-3.6-13.979-6.971-21.127-10.84C.586,725.607.586,672.828.586,619.632c5.274-6.452,11.46-11.547,17.172-17.125,14.515-14.175,29.076-28.331,42.593-43.472,13.314-14.913,26.688-29.88,36.755-47.275,14.978-25.88,25.273-53.335,28.874-83.354a151,151,0,0,0-10.44-76.933c-2.809-6.834-5.213-13.861-7.753-20.818-9.957-27.268-4.492-52.089,11.394-75.431,14.292-21,34.73-32.789,58.85-38.421,14.048-3.28,26.9,1.345,38.78,8.968,12.3,7.894,21.761,18.674,30.434,30.169,9.307,12.332,20.256,23.174,30.533,34.627,14.978,16.691,29.314,33.826,37.678,55.062a322.013,322.013,0,0,1,14.4,47.124c6.5,28.744,11.981,57.732,22,85.584a617.264,617.264,0,0,0,33.924,76.728c13.078,25.05,28.143,49.118,38.1,75.745,4.618,12.348,9.127,24.706,12.64,37.449,6.233,22.608,5.218,45.079.063,67.641-5.211,22.807-15.2,43.525-27.617,63.559-20.4.267-40.573.267-61.164.267-2.054-2.285-.283-3.921.77-5.584a268.469,268.469,0,0,0,23.458-45.337A175.264,175.264,0,0,0,384.4,675.3c-1.016-20.211-5.275-39.84-10.832-59.288-3.781-13.227-9.638-25.486-15.526-37.753-18.66-38.888-35.383-78.615-51.858-118.456-6.849-16.56-12.959-33.43-20.941-49.517a165.415,165.415,0,0,0-26.566-39.26c-9.468-10.219-20.4-18.359-34.959-20.428a37.654,37.654,0,0,0-38.869,19.156c-7.727,13.738-11.588,28.817-15.078,44-6.409,27.886-13,55.686-24.614,82.031-11.579,26.26-25.169,51.293-42.431,74.319-16.353,21.815-33.67,42.9-49.381,65.2C42.4,650.823,31.914,666.65,26.011,684.945c-6.643,20.589-3.057,38.644,12.8,54.181,11.659,11.425,25,20.383,38.748,28.867s27.43,17.053,40.831,26.061C120.252,795.307,122.76,796.241,122.6,799.451Z" transform="translate(0.03 111.45)" fill="#fff"/>
        <path id="Path_18" data-name="Path 18" d="M762.092.865c18-.28,35.8-.28,54.02-.28,8.6,4.88,17.482,8.184,26.383,11.421,13.5,4.911,27.468,8.406,40.824,13.823,29.175,11.836,47.315,33.182,55.469,63.341,5.371,19.875,8.092,40.13,6.829,60.678-1.174,19-3.886,37.756-14.9,54.18C923.8,214.334,914.264,221.851,904.447,229,883.328,244.4,860.617,257.2,837.7,269.678c-16.379,8.923-33.017,17.5-47.84,28.98-11.346,8.783-21.048,19.113-27.664,32-4.259,8.294-6.065,17.263-6.776,26.512-2.019,26.34,1.3,52.68-.036,79.006-.738,14.676-2.436,29.2-9.052,42.711-8.234,16.821-22.088,24.465-40.264,25.247-16.007.687-31.1-3.71-45.99-8.806-18.362-6.285-36.184-14.05-54.557-20.312a163.582,163.582,0,0,0-44.295-8.963c-11.028-.574-21.744,1.96-32.353,4.938-23.133,6.494-43.279,18.388-61.42,33.827-14.6,12.422-28.042,25.979-38.44,42.248-11.553,18.075-17.965,37.729-16.677,59.312,1.074,18.017,6.065,35.238,12,52.234,8.645,24.767,20.885,47.7,34.4,70.075,12.02,19.907,22.3,40.816,34.47,60.652,14.4,23.457,30.907,45.226,50.419,64.678,16.367,16.318,32.415,32.929,46.728,51.121,1.264,1.609,2.9,3.068,2.3,5.727-16.521.284-32.841.284-49.579.284a4.233,4.233,0,0,1-1.666-1.263c-10.522-16.762-24.318-30.961-36.508-46.416-11.344-14.382-20.748-29.944-29.416-45.984-10-18.508-19.2-37.42-28.314-56.386-12.578-26.181-26.983-51.393-41.45-76.575-12.712-22.127-24.053-44.914-30.443-69.861-6.3-24.587-2.892-47.708,9.068-69.981,11.322-21.086,26.3-39.319,42.363-56.827,6.013-6.552,12.044-13.075,18.464-19.218,13.156-12.591,26.194-25.345,40.473-36.672,16.239-12.88,34.431-21.058,55.663-19.743,17.346,1.074,34.28,4.7,50.983,9.56,14.929,4.348,29.667,9.393,44.885,12.727,11.095,2.43,22.2,3.482,33.46.916,12.859-2.93,21.382-10.31,24.688-23.277,3.676-14.425,3.018-29.068,2.155-43.723-1.142-19.654-.738-39.064,7.549-57.541,7.736-17.25,21.821-27.615,37.881-35.969,14.459-7.524,29.5-13.849,44.141-20.975,26.988-13.133,52.517-28.555,74.846-48.971,18.86-17.25,26.694-38.861,27.326-63.781.516-20.489-5.157-39.008-18.024-54.964C861.5,74.2,848.915,65.438,835.9,57.392,812.421,42.9,789.435,27.736,768.618,9.544,765.924,7.2,762.412,5.312,762.092.865Z" transform="translate(192.46 0.032)" fill="#fff"/>
        <path id="Path_19" data-name="Path 19" d="M1143.509,367.778c.249,15.67.249,31.1.249,46.95-1.681,1.562-2.854.364-3.868-.619-18.087-17.5-39.01-31.329-59.516-45.655-28.161-19.67-50.472-44.6-68.114-73.951-8.608-14.332-16.664-29.079-27.913-41.653-15.126-16.907-33.132-28.456-56.35-30.532-30.553-2.731-57.212,6.689-80.821,25.635-11.053,8.872-20.665,19.04-27.344,31.765-7.478,14.26-11.435,29.444-12.858,45.415-1.334,14.934-.071,29.927-1,44.828-2.268,36.652-5.326,73.254-14.7,108.951-4.2,15.967-9.781,31.473-19.438,45.05-14.165,19.91-33.417,27.367-57.435,22.49-21.039-4.272-40.255-13-58.54-23.93-18.823-11.251-37.541-22.676-57.445-31.972-14.272-6.666-28.808-12.626-44.658-14.248-17.258-1.765-33.885.421-48.439,10.567-15.311,10.675-24.407,25.547-27.29,44.067-3.271,21.019,1.226,41.007,8.71,60.424,12.534,32.517,30.68,61.615,53.414,88.073,17.219,20.04,37.527,36.462,57.937,52.917,21.587,17.4,40.46,37.34,54.773,61.285a171.7,171.7,0,0,1,11.065,22.254c.664,1.592,1.7,3.192.743,5.353-14.157.276-28.106.276-42.473.276a234.568,234.568,0,0,0-24.229-33.669c-10.657-12.139-22.318-23.292-34.124-34.28-16.152-15.034-32.495-29.846-46.744-46.791-31.577-37.554-55.113-79.891-74.09-124.871-6.757-16.018-11.6-32.8-12.385-50.269a82.1,82.1,0,0,1,8.718-40.431c16.715-33.76,44.583-52.245,80.973-59.385,18.829-3.695,36.829-.452,54.706,4.931,15.512,4.669,30.119,11.6,44.775,18.38,13.175,6.094,26.323,12.245,39.8,17.659a101.662,101.662,0,0,0,47.529,6.813c20.9-1.88,35.026-14.051,44.648-31.912,9.915-18.4,14.459-38.446,17.34-58.955,2.054-14.69,1.939-29.512,2.552-44.28.258-5.993-.471-12.058-.489-18.1-.062-25.842,1.494-51.3,16.557-73.766a100.806,100.806,0,0,1,26.819-26.9,371.43,371.43,0,0,1,83.907-43.3c16.957-6.193,34.537-9.984,52.722-8.366,24.454,2.176,44.826,12.637,60.378,31.857,10.377,12.823,16.9,27.8,23.244,42.817,6.7,15.828,13.276,31.7,21.777,46.689,8.714,15.35,20.728,27.7,34.457,38.485,15.188,11.932,31.7,21.848,48.551,31.208A11.806,11.806,0,0,1,1143.509,367.778Z" transform="translate(222.697 89.659)" fill="#fff"/>
        <path id="Path_20" data-name="Path 20" d="M.87,643.1C.586,623.92.586,604.931.586,585.526c10.951-10.19,21.225-20.673,31.3-31.3,12.944-13.65,25.5-27.721,33.761-44.933,7.221-15.05,10.419-31,11.224-47.645,1.351-27.929-5.56-54.321-13.739-80.581-4.186-13.44-7.971-26.959-7.747-41.3a113.543,113.543,0,0,1,10.434-46,173.009,173.009,0,0,1,36.442-51.617,1086.982,1086.982,0,0,1,86.31-76.643,78.947,78.947,0,0,1,14.192-9.107c12.509-6.165,24-4.309,34.392,5.148,9.579,8.718,15.046,20.006,20.585,31.343,12.286,25.15,24.249,50.5,41.271,72.97,10.345,13.659,22.705,25.378,35.731,36.375,13.792,11.644,26.285,24.322,35.405,40.073,5.851,10.106,8.443,21.115,9.482,32.576,1.6,17.615-.678,35.123-1.688,52.66-.574,9.949.466,19.837,1.071,29.71.99,16.155,4.445,31.951,9,47.487,5.736,19.585,14.5,37.861,24.112,55.774C429.01,591.99,448.9,621.7,466.688,652.647c12.148,21.135,22.609,43.083,29.143,66.61,8.922,32.121,5.407,63.691-5.968,94.621a120.6,120.6,0,0,1-7.986,18.167c-21.881.267-43.537.267-65.61.267-1.768-3.183.595-5.326,1.893-7.638,7.327-13.089,13.9-26.525,18.378-40.86,7.806-24.991,10.349-50.539,5.408-76.33-4.2-21.922-12.4-42.674-21.736-62.877-12.437-26.907-28.162-52.127-41.071-78.8-18.083-37.368-31.98-76.176-40.2-116.944-4.631-22.958-10-45.7-18.112-67.765-6.386-17.379-16.179-32.525-27.877-46.675-11.613-14.046-24.921-26.57-36.322-40.788-5.652-7.048-11.1-14.261-17.063-21.056-8.606-9.8-18.568-17.9-30.466-23.337-12.358-5.642-25.262-6.092-38.212-2.468-28.523,7.98-49.414,25.406-63.025,51.658-11.324,21.842-11.663,44.248-3.729,67.186,4.165,12.043,9.177,23.772,13.018,35.932a128.224,128.224,0,0,1,5.782,50.8c-2.371,26.329-9.686,50.952-21.122,74.773C92.043,547.463,78.28,564.7,63.886,581.637c-14.792,17.4-31.4,33.075-47.419,49.306C12.71,634.75,8.379,637.9,4.652,641.719A3.655,3.655,0,0,1,.87,643.1Z" transform="translate(0.03 78.866)" fill="#fff"/>
        <path id="Path_21" data-name="Path 21" d="M330.842,752.146c-26.636.249-53.034.249-79.849.249-1.567-2.143.309-2.588,1.521-3.148,25.616-11.925,40.288-33.609,51.723-58.11,6.238-13.362,9.988-27.543,13.01-41.924,3.073-14.629,2.813-29.358,1.778-44.186-1.28-18.345-5.72-35.942-11.592-53.232-10.165-29.929-24.172-57.933-43.062-83.334a72.969,72.969,0,0,0-18.133-17.523c-16.5-10.912-33.978-8.119-46.68,7.061-10.767,12.868-20.068,26.8-29.585,40.547-18.713,27.033-37.56,54-54.368,82.286-9.387,15.8-16.2,32.692-18.321,51.094-1.973,17.111,1.268,33.2,12.1,46.974,24.556,31.234,54.139,55.79,92.523,68.381,2.256.738,4.567,1.272,6.832,1.965,1.353.418,3.054.542,2.9,2.872-28.96.276-57.73.276-86.917.276-18.771-13.863-38.472-25.659-57.97-37.779-12.845-7.985-25.3-16.478-35.768-27.624-12.436-13.243-16.692-28.2-10.924-45.767,5.611-17.094,14.733-32.286,24.89-46.936,15.963-23.023,33.823-44.615,50.64-67a381.839,381.839,0,0,0,39.721-66.677c13.78-29.158,22.188-59.929,29.151-91.222,2.834-12.734,6.268-25.313,11.5-37.319,4.652-10.672,11.072-19.459,22.868-23.285,8.353-2.71,16.331-1.91,24.315,1.021,11.688,4.29,20.29,12.647,28.046,21.9,13.554,16.178,23.176,34.68,30.931,54.183q23.978,60.3,50.443,119.549c7.044,15.825,15.367,31.1,21.937,47.118A240.7,240.7,0,0,1,371,620.066c3.208,31.71-3.17,61.481-16.161,90.263-6.124,13.566-13.782,26.2-21.561,38.8A11.265,11.265,0,0,1,330.842,752.146Z" transform="translate(8.803 158.783)" fill="#fff"/>
        <path id="Path_22" data-name="Path 22" d="M722.807.853C736.36.586,749.715.586,763.489.586c4.357,2.99,6.936,7.245,10.395,10.7,22.755,22.7,46.275,44.615,68.639,67.709,10.368,10.71,19.154,22.523,24.943,36.422,8.083,19.405,6.66,38.146-3.557,56.346-8.483,15.094-21.27,25.526-36.164,33.839-12.547,7-26.276,10.819-39.695,15.433-17.082,5.874-34.457,10.966-50.337,19.843-21.762,12.168-37.057,30.51-49.3,51.8-6.8,11.825-12.148,24.388-18.924,36.226-7.784,13.6-17.9,23.853-34.248,26.26-11.414,1.68-22.1-.7-32.4-5.34-13.24-5.967-24.656-14.593-35.365-24.3-18.851-17.093-36.8-35.213-57.347-50.383-17.84-13.173-37.176-23.685-57.3-32.908-14.13-6.477-28.711-12.028-42.237-19.759-22.12-12.645-38.275-30.952-50.049-53.361-8.769-16.691-15.524-34.251-22.586-51.683-11.017-27.2-22.579-54.148-38.064-79.188C293.2,27.4,286.128,16.8,277.71,7.178c-1.529-1.748-3.421-3.371-3.07-6.325C289.676.586,304.514.586,319.77.586c8.5,12.932,15.94,26.238,23.232,39.629,10.631,19.519,19.57,39.873,29.554,59.705,8.584,17.051,17.518,34.015,29.559,48.987A147.657,147.657,0,0,0,450.8,188.279c13.865,7.056,28.172,13.156,42.24,19.773,23.653,11.125,45.824,24.808,67.573,39.218,8.781,5.818,17.765,11.363,27.584,15.208,21.613,8.464,41.715,5.86,60.15-8.71,11.159-8.819,21.821-18.213,32.635-27.429a244.353,244.353,0,0,1,66.607-40.3c11.355-4.64,23-8.71,32.937-16.314,16.059-12.283,21.839-28.592,19.092-48.179-2.472-17.65-9.959-33.465-19.287-48.358a321.9,321.9,0,0,0-39.886-51.567c-5.1-5.352-10.192-10.728-15.331-16.054C723.913,4.325,722.348,3.217,722.807.853Z" transform="translate(141.933 0.032)" fill="#fff"/>
        <path id="Path_23" data-name="Path 23" d="M309.263.848c13.265-.262,26.325-.262,39.8-.262,1.834,1.412,2.4,3.286,3.1,5.07a556.532,556.532,0,0,0,37.971,78.8c10.247,17.587,21.879,34.263,38.13,47.022a158.477,158.477,0,0,0,26.528,17c21.426,10.794,43.341,20.645,63.811,33.277,13.49,8.325,26.919,16.762,40.8,24.423a71.1,71.1,0,0,0,21.642,7.8c11.222,2.059,21.555-.216,31.107-6.058,15.929-9.743,31.1-20.66,46.888-30.631,11.9-7.516,23.835-15,34.832-23.83a118.121,118.121,0,0,0,17.437-17.647c14.411-17.657,16.171-37.1,8.952-58.135A127.413,127.413,0,0,0,691.078,29.9,170.722,170.722,0,0,0,664.943,7.9c-2.533-1.739-6.055-2.85-6.208-7.043C671.4.586,683.866.586,696.75.586c24.829,24.853,48.684,50.165,65.935,80.819a139.586,139.586,0,0,1,13.809,33.6c6.482,25.187-2.392,45.074-25.387,57.241-9.719,5.141-20.1,8.747-30.144,13.1-23.063,9.984-43.568,23.856-62.608,40.1-11.141,9.5-21.836,19.561-34.026,27.792-8.763,5.918-18.233,9.94-28.892,10.352a53.3,53.3,0,0,1-17.05-2.486c-10.646-3.124-20.207-8.5-29.384-14.5-18.346-12.006-36.753-23.93-56.122-34.214-12.806-6.8-26.094-12.668-39.281-18.714-13.872-6.361-27.6-13.023-40.026-22.025-17.357-12.572-30.161-29-40.882-47.359-11.224-19.214-20.529-39.364-30.144-59.383-9.3-19.363-19.8-38.094-30.681-56.617C310.576,6.094,308.3,4.157,309.263.848Z" transform="translate(159.766 0.032)" fill="#fff"/>
        <path id="Path_24" data-name="Path 24" d="M340.368.848c14.749-.262,29.291-.262,44.25-.262,2.137,2.241,1.962,5.036,2.63,7.584C393.472,31.9,402.77,54.15,418.532,73.3c11.284,13.713,25.291,23.887,40.875,32.21,20.621,11.014,42.035,20.559,61.674,33.4,9.778,6.4,19.18,13.4,29.775,18.506a53.463,53.463,0,0,0,41.008,2.889c17.075-5.486,31.754-14.951,45.113-26.777a115.816,115.816,0,0,0,15.5-16.4c7.484-9.808,9.058-21.167,7.823-32.9-1.753-16.642-7.07-32.087-17.841-45.226A93.532,93.532,0,0,0,621.9,20.82c-7.87-5.28-15.817-10.439-23.774-15.585C596.6,4.242,594.549,3.521,594.7.859c12.66-.273,25.128-.273,38.011-.273,14.562,11.652,30.581,21.114,42.737,35.076,14.75,16.944,25.343,36.154,28.769,58.654,1.758,11.539-.935,22.335-7.278,32.232a94.874,94.874,0,0,1-25.855,27.192c-23.867,16.534-48.638,31.723-72.546,48.187-18.441,12.7-36.547,10.359-54.72.041-18.678-10.606-36.628-22.445-55.349-32.981-11.883-6.688-24.1-12.773-36.512-18.363C422.5,137.362,398.723,117.981,382.1,89.851A641.955,641.955,0,0,1,341.268,7.057C340.5,5.178,339.358,3.308,340.368.848Z" transform="translate(175.788 0.032)" fill="#fff"/>
        <path id="Path_25" data-name="Path 25" d="M373.861.848C390.1.586,406.122.586,422.563.586c2.066,1.931,2.1,4.342,2.453,6.678,1.873,12.436,5.4,24.229,12.943,34.58,7.026,9.641,16.555,16,27.13,20.9C480.114,69.709,495.7,75.531,509.2,85.459c7.87,5.788,15.554,11.83,23.815,17.082,10.394,6.608,21.427,8.925,33.511,5.723,7.884-2.09,13.739-6.971,18.163-13.438,3.953-5.78,3.136-12.563,1.889-18.965-1.979-10.155-7.4-18.594-14.284-26.181C558.482,34.455,541.316,24.19,522.765,15.9c-7.972-3.561-15.91-7.2-23.84-10.854-1.756-.809-4.13-1.239-4.11-4.191,23.923-.274,47.653-.274,71.8-.274,12.813,9.434,26.227,17.356,39.219,25.893,19.727,12.962,29.406,31.831,33.453,54.313a46.972,46.972,0,0,1-1.031,22.4c-2.325,7.64-6.993,13.818-12.447,19.218-15.113,14.96-32.154,27.027-52.772,33.448a48.915,48.915,0,0,1-37.119-2.813,105.324,105.324,0,0,1-15.4-8.835c-21.222-15.072-44.208-27.016-67.4-38.633-6.481-3.246-12.8-6.816-19.085-10.47-19.292-11.223-33.254-27.376-43.9-46.66-7.421-13.443-12.331-27.882-16.5-42.6C373.182,4.276,372.751,2.687,373.861.848Z" transform="translate(192.976 0.032)" fill="#fff"/>
        <path id="Path_26" data-name="Path 26" d="M968.255,199.536c.249,14.481.249,28.727.249,43.389-2.445,2.355-5.1,1.351-7.674.9-32.119-5.663-62.779-15.964-92.505-29.216-9.87-4.4-19.856-8.458-28.651-14.982-13.383-9.931-22.417-22.855-28.348-38.337-7.016-18.311-9.8-37.425-12.093-56.714-3.112-26.2-6.971-52.267-17.5-76.786A161.051,161.051,0,0,0,770.671,6.04c-.925-1.488-2.143-2.9-1.556-5.16,18.3-.294,36.4-.294,54.918-.294,6,9.007,9.239,19.035,12.858,28.88,6.865,18.673,10.644,38.213,15.819,57.36C857,102.715,861.665,118.4,868.876,133.3c11.9,24.577,30.963,41.077,55.994,51.209,12.645,5.117,25.4,9.825,38.734,12.878C965.17,197.745,966.842,197.973,968.255,199.536Z" transform="translate(397.951 0.032)" fill="#fff"/>
        <path id="Path_27" data-name="Path 27" d="M680.861,788.078a12.75,12.75,0,0,0-2.018-4.98c-7.745-13.827-13.81-28.486-21.261-42.446-7.718-14.457-15.428-28.9-24.6-42.554-13.073-19.433-29.127-35.27-49.944-46.485a172.506,172.506,0,0,1-45.524-35.566c-16.1-17.6-28.06-37.674-31.886-61.641-1.431-8.962-2.231-18.242,1.176-27.047,5.544-14.326,17.776-18.409,32.177-16.269,17.417,2.589,31.661,12.449,46.632,20.7,23.16,12.756,44.762,28.136,68.175,40.416,14.441,7.575,29.54,13.39,46.337,13.179,14.3-.179,27.263-4.7,39.437-11.644,19.785-11.29,30.74-29.552,38.708-50.076,5.682-14.628,9.328-29.841,12.191-45.174,2.6-13.846,4.384-27.851,5.727-41.919,1.734-18.167,2.917-36.368,4.455-54.545q2.441-28.987,6.234-57.857c1.769-13.67,2.712-27.51,7.532-40.692,7.007-19.172,19.421-33.417,38.139-41.424,14-5.984,28.313-4.507,42.158,1.366,17.286,7.334,28.979,20.971,39.517,35.764,13.454,18.873,26.748,37.871,43.848,53.745,13.525,12.551,28.25,23.624,43.056,34.589,14.112,10.452,27.948,21.222,40.379,33.7,13.045,13.1,22.328,28.491,28.873,45.674,6.847,17.991,10.4,36.6,9.728,55.83a157.3,157.3,0,0,1-12.476,56.193c-8.954,21.208-22.488,39.328-37.49,56.552q-17.366,19.935-36.547,38.066c-13.641,12.836-27.388,25.563-41.74,37.634-11.844,9.966-23.031,20.713-34.7,30.9-13.178,11.514-25.281,24.13-37.321,36.758-8.937,9.372-18.549,18.193-26.374,28.935a74.533,74.533,0,0,1-8.519.311c-.436-1.325.436-2.143,1.263-3.005,6.971-7.247,14.076-14.379,20.852-21.8,10.688-11.7,21.884-22.895,33.2-33.968,13.294-13,27.388-25.127,41.5-37.229,9.177-7.873,17.864-16.329,27.05-24.189,16.673-14.257,32.128-29.791,47.155-45.688,17.358-18.361,33.381-37.9,43.91-61.236a160.069,160.069,0,0,0,13.329-47.9c3.406-29.485-3.886-56.548-17.473-82.214-6.954-13.136-16.913-23.965-28.064-33.889-18.656-16.592-39.455-30.379-58.715-46.142a267.607,267.607,0,0,1-49.343-53.512c-8.572-12.172-16.744-24.69-27.717-34.961-12.333-11.545-26.516-18.6-43.874-17.557-9.932.6-18.433,4.919-26.232,10.771-14.654,10.992-22.053,26.3-25.183,43.822-2.934,16.491-4.642,33.163-6.42,49.826-1.743,16.385-3.317,32.769-4.411,49.211-.907,13.5-2.01,26.994-3.548,40.431-3.53,30.891-7.932,61.627-19.474,90.815-7.834,19.83-19.3,36.952-37.747,48.388a86.953,86.953,0,0,1-35.942,12.81c-17.678,2.114-33.95-1.88-49.77-9.028-20.541-9.285-38.8-22.538-58.269-33.692-16.78-9.615-33.026-20.281-51.056-27.523-7.516-3.019-15.377-5.078-23.706-2.853a19.625,19.625,0,0,0-14.781,16.8c-2.694,18.665,3.6,35.27,11.979,51.2a126.171,126.171,0,0,0,25.285,32.846A193.036,193.036,0,0,0,588.7,647.725c19.7,10.8,34.8,26.147,47.544,44.189,16.788,23.773,29.042,50.055,41.66,76.113,3.157,6.5,7.585,12.36,9.675,19.714A42.066,42.066,0,0,1,680.861,788.078Z" transform="translate(260.939 123.099)" fill="#f1f1f1"/>
        <path id="Path_28" data-name="Path 28" d="M947.1,140.865c.267,17.427.267,34.637.267,52.264-1.387,1.522-2.845.867-4.242.535-20.15-4.785-39.366-12.02-57.186-22.615-14.37-8.548-24.676-20.93-32.545-35.6-9.043-16.857-14.557-34.921-19.252-53.324-6.553-25.666-12.218-51.611-23.36-75.871-.729-1.588-1.512-3.263-.56-5.394C827.045.586,843.664.586,860.693.586c4.517,9.373,7.452,19.146,10.386,28.919,4.722,15.758,7.914,31.923,12.6,47.693,4.233,14.24,10.288,27.571,20.808,38.284a95.323,95.323,0,0,0,34.422,22.312C941.541,138.8,944.35,139.272,947.1,140.865Z" transform="translate(419.091 0.032)" fill="#fff"/>
        <path id="Path_29" data-name="Path 29" d="M.864,277.329C.586,264.072.586,251.012.586,237.535c12.342-14.681,23.444-29.825,31.293-47.052,8.892-19.516,15.09-39.741,15.64-61.482a255.523,255.523,0,0,1,8.4-58.694c2.668-10.14,8-19.071,12.949-28.148,7.359-13.509,14.591-27.076,21.3-41.3C107.607.586,124.817.586,142.444.586c2.029,2.211.5,3.962-.542,5.666A354.931,354.931,0,0,1,116.86,42.92c-11.137,14.014-20.9,28.731-24.681,46.694-2.441,11.6-5.085,23.15-6.861,34.869-1.664,10.978-3.269,21.949-5.491,32.848-3.809,18.684-11.323,35.8-20.723,52.211-14.351,25.063-33.277,46.376-54.138,66.1C3.9,276.653,2.851,277.785.864,277.329Z" transform="translate(0.03 0.032)" fill="#fff"/>
        <path id="Path_30" data-name="Path 30" d="M.586,322.772c4.4-2.2,6.034-6.677,8.792-9.933,7.642-9.023,15.378-17.926,23.822-26.207,15.517-15.215,30.39-31.044,43.693-48.237,21.71-28.059,36.944-59.06,43.962-94.188C127,113.47,137.471,84.148,155.763,58.243c10.27-14.544,21.9-27.873,37.751-36.739,11.084-6.2,23.057-8.038,35.532-6.355,18.466,2.492,34.165,12.077,50.293,20.351,13,6.671,25.693,13.978,38.356,21.291,27.937,16.134,44.171,40.525,50.12,72.006,2.274,12.032,3.106,24.183,3.747,36.419.793,15.151.545,30.376,2.525,45.455,2.248,17.123,6.386,33.615,16.561,48.029,6.3,8.922,14.37,15.928,23.169,22.278,18.963,13.688,40.467,22.62,61.081,33.254,17.226,8.886,33.4,19.561,47.318,33.208,13.477,13.211,19.83,29.5,18.938,48.336-.579,12.2-4.282,23.715-9.142,34.885-10.066,23.133-24.285,43.91-37.047,65.51-9.853,16.676-17.843,34.094-20.207,53.458-1.308,10.721.044,21.487,3.076,31.97,5.918,20.47,15.641,39.143,26.4,57.405,13.715,23.289,29.106,45.532,42.817,68.8a475.549,475.549,0,0,1,28.659,58.01c6.384,15.258,12.616,30.588,17.467,46.415a439.927,439.927,0,0,1,13.891,61.1c1.545,9.88,3.61,19.688,3.525,30.172a18.8,18.8,0,0,1-4.955.409c-2.631-19.127-5.658-38.114-9.654-56.977-7.023-33.149-19.549-64.283-33.329-95.046-10.912-24.362-24.529-47.145-38.911-69.551-14.118-21.993-28.537-43.827-39.888-67.464-6.54-13.619-11.989-27.652-14.426-42.61a92.288,92.288,0,0,1,2.7-40.67c5.9-20.615,17.194-38.473,28.1-56.531,10.551-17.465,20.971-34.967,28.58-53.987,3.712-9.279,6.044-19.011,5.973-28.826-.1-13.485-5.033-25.634-14.182-35.835-12.514-13.951-28.137-23.734-44.1-33.114-14.306-8.408-29.921-14.184-44.3-22.463-14.773-8.505-29.14-17.5-40.813-30.114-11.984-12.947-18.6-28.535-21.786-45.733-2.475-13.368-3.09-26.862-3.7-40.423-.905-20.258-1.028-40.642-6.047-60.527a99.95,99.95,0,0,0-24.106-44.727c-7.7-8.189-17.39-14.1-27.228-19.541-16.037-8.863-31.975-17.935-48.3-26.233-9.149-4.65-18.468-9.18-28.858-10.98-15.287-2.648-29.21.564-41.412,9.737-20.429,15.358-34.06,35.97-44.663,58.981-10.461,22.7-16.178,46.767-22,70.861-6.235,25.81-18.7,48.664-33.973,70.1C78.946,246.8,67.074,260.1,54.9,273.182c-7.467,8.024-15.324,15.635-22.9,23.531C21.967,307.156,12.313,317.9,4.333,330.036,3.506,331.294,2.8,332.571.9,333,.586,329.749.586,326.465.586,322.772Z" transform="translate(0.03 7.266)" fill="#f1f1f1"/>
        <path id="Path_31" data-name="Path 31" d="M549.623,877.421c.454-8.625,1.762-17.242,2.026-25.887.341-11.209.686-22.43-.347-33.676-.754-8.209-1.5-16.376-2.806-24.532-2.369-14.807-6.889-28.919-12.457-42.768-10.408-25.887-24.783-49.594-39.634-73.083-13.8-21.827-29.72-42.245-42.494-64.753-13.085-23.057-25.172-46.509-31.14-72.594a128.468,128.468,0,0,1,5.749-77.657c6.291-15.906,13.753-31.391,17.905-48.094,4.146-16.676,3.584-32.732-6.232-47.621a93.265,93.265,0,0,0-20.853-22.081c-14-10.952-29.835-19.059-44.362-29.183-13.118-9.142-25.645-18.973-36.462-30.781-9.583-10.462-16.339-22.794-22.009-35.681-8.721-19.822-13.788-40.73-16.941-62.055-1.717-11.615-2.9-23.328-3.9-35.058-1.18-13.881-2.029-27.912-7.427-41.085-7.336-17.9-20.316-29.873-38.447-36.152-20.8-7.205-38.742-1.778-53.632,13.767-8.891,9.283-14.663,20.789-19.385,32.6C165.73,148.668,153.554,175.661,136.162,200a502.809,502.809,0,0,1-31.41,39.369c-13.465,15.335-28,29.64-41.879,44.576C46.5,301.572,32.352,320.807,24.287,343.808a127.493,127.493,0,0,0-6.853,29.623c-.741,7.471-2.1,14.936-1.655,22.438a420.5,420.5,0,0,0,6.348,51.612c1.492,8.076,2.249,16.287,3.355,24.435,1.218,8.97,1.08,18,.844,27A105.9,105.9,0,0,1,11.8,549.374c-2.353,4.111-4.806,8.132-7.459,12.048C3.5,562.667,2.8,563.953.9,564.385c-.31-3.253-.31-6.537-.31-10.23,3.689-1.216,4.158-4.824,5.555-7.336a112.075,112.075,0,0,0,14.267-46.091c.962-11.932-.947-23.445-1.893-35.132-1.484-18.333-6.028-36.217-7.448-54.6-1.759-22.778-.569-45.114,6.577-66.852A149.229,149.229,0,0,1,45.083,295.4c14.441-17.425,30.65-33.217,46-49.8,22.182-23.964,42.1-49.7,58.026-78.419,8.714-15.71,14.857-32.5,22.226-48.766,6.117-13.506,12.878-26.54,23.717-37.113a55.494,55.494,0,0,1,59.46-11.492c25.738,10.678,40.024,29.955,44.079,57.366,2,13.545,2.715,27.207,4.384,40.769,3.853,31.306,10.016,62.012,25.1,90.207,9.373,17.521,22.884,31.266,38.718,43.054,14.835,11.045,30.913,20.122,46.336,30.23,12.06,7.9,22.9,17.189,31.268,29.065,9.4,13.341,12.068,28.14,10.079,44.223-2.526,20.436-11.22,38.729-19.076,57.314a123.646,123.646,0,0,0-9.613,59.3c1.338,15.8,6.208,30.867,12.192,45.545,8.966,21.989,20.553,42.6,33.588,62.349,15.363,23.279,31.615,45.982,45.731,70.065,14.987,25.569,28.258,51.943,34.956,81.084a200.25,200.25,0,0,1,5.1,40.223c.154,6.474,1.128,12.959.73,19.449-.749,12.193-1.74,24.373-2.628,36.964A26.786,26.786,0,0,1,549.623,877.421Z" transform="translate(0.03 33.757)" fill="#f1f1f1"/>
        <path id="Path_32" data-name="Path 32" d="M948.5,497.263c.249,30.151.249,60.106.249,90.478-10.3,11.064-21,21.3-31.318,31.932-10.715,11.039-21.332,22.176-31.6,34.056-26.019.231-51.824.231-78.047.231-1.725-2.472.3-3.921,1.494-5.371,10.235-12.44,20.852-24.562,31.283-36.83q17.1-20.086,34.626-39.792c6.189-6.95,12.342-13.96,18.825-20.617,7.843-8.052,15.072-16.682,23.28-24.368,9.079-8.5,16.842-18.264,25.9-26.771C944.648,498.845,945.768,496.838,948.5,497.263Z" transform="translate(417.709 257.217)" fill="#fff"/>
        <path id="Path_33" data-name="Path 33" d="M579.576,911.146c-2.051-5.62-6.533-9.31-10.076-13.516-14.876-17.647-31.41-33.755-47.369-50.405-17.6-18.368-32.428-38.972-45.359-60.905-15.75-26.716-30.667-53.911-45.987-80.872a271.726,271.726,0,0,1-30.971-83.1c-4.03-20.933-2.251-41.292,6.877-60.9,6.75-14.5,15.936-27.15,26.868-38.7,17.424-18.4,36.792-34.287,59.981-44.82,13.7-6.221,27.991-10.742,43.17-12.413,16.675-1.835,32.51,1.632,48.245,6.137,21.177,6.064,41.185,15.408,62,22.5,15.4,5.245,31.011,9.981,47.53,8.755,21.679-1.609,35.151-12.319,42-36.187a129.116,129.116,0,0,0,4.562-37.158c-.125-11.41.347-22.839-.142-34.229-.418-9.746-1.218-19.5-.685-29.229.658-11.907,1.627-23.857,7.069-34.832,7.185-14.476,18.042-25.813,30.856-35.306,14.041-10.4,29.487-18.55,44.808-26.825,24.569-13.277,48.782-27.119,71.271-43.754,13.258-9.8,24.463-21.3,30.091-37.346,3.237-9.24,4.775-18.8,6.1-28.429a138.658,138.658,0,0,0,.792-27.885c-1.307-20.057-4.3-39.886-12.5-58.454-10.431-23.635-28.695-38.816-52.615-47.808-16.175-6.081-33.168-9.829-48.943-16.964C812.432,6.376,806.874,5.639,803.3.9c4.428-.316,8.892-.316,13.774-.316,3.1,3.493,7.407,3.858,11.062,5.391,14.041,5.884,29.06,8.974,43.074,15,12.725,5.479,24.836,12.013,34.448,22.115a103.227,103.227,0,0,1,26.374,50.812c3.486,16.609,6.011,33.406,5.38,50.394-.623,17.088-2.463,34.119-8.937,50.2a61.852,61.852,0,0,1-11.56,18.269c-13.089,14.533-29.22,25.221-45.537,35.664-26.65,17.051-55.478,30.325-82.119,47.356-17.749,11.347-32.492,25.566-39.41,46.223a71.221,71.221,0,0,0-3.477,22.169c-.187,23.383,1.752,46.752.782,70.128-.56,13.527-1.725,27.094-6.509,39.944-7.194,19.352-19.963,31.761-41.5,34.264-14.45,1.679-28.167-.848-41.826-4.6-24.4-6.7-47.182-17.965-71.3-25.465-12.254-3.811-24.745-6.813-37.6-7.4-15.022-.684-29.152,3.759-43.043,8.842-29.122,10.656-52.047,30.091-72.441,52.63C419.52,547.361,409.65,564.469,405.5,584.4c-2.691,12.927-1.93,25.811.743,38.613,4.577,21.91,12.3,42.73,21.635,63.045,7.361,16.024,16.906,30.794,25.441,46.143,7.824,14.069,15.623,28.156,23.682,42.092a413.589,413.589,0,0,0,34.051,50.636c10.53,13.247,22.852,24.741,34.357,37.037,13.194,14.1,27.074,27.643,38.259,43.516,1.073,1.521,2.612,2.89,2.622,5.335A43.276,43.276,0,0,1,579.576,911.146Z" transform="translate(205.726 0.032)" fill="#f1f1f1"/>
        <path id="Path_34" data-name="Path 34" d="M1145.335,369.251c-8.216-2.686-15.517-7.49-22.906-12.046-17.366-10.7-34.262-22.018-48.436-36.99a125.519,125.519,0,0,1-18.834-26.124c-8.83-16.1-15.428-33.235-22.737-50.039-7.4-17-15.668-33.457-29.86-46.106a83.045,83.045,0,0,0-43.483-20.327c-24.987-3.862-48.338,2.8-71.013,12.213-25.031,10.393-49.067,22.8-71.289,38.448-22.391,15.773-36.689,36.646-40.6,64.231a268.534,268.534,0,0,0-2.445,32.567c-.151,8.027.978,16.085.711,24.1-.756,22.367-1.423,44.812-7.229,66.6-4.313,16.16-9.5,32.083-20.247,45.412-10.644,13.208-24.231,20.513-41.455,21.49-22.764,1.29-43.239-5.831-63.464-15.1-21.738-9.963-43.012-21.091-65.982-28.169-12.281-3.784-24.838-7.085-37.717-6.477-24.847,1.174-47.468,8.543-67.422,24.348a99.866,99.866,0,0,0-32.465,44.4c-7.164,19.244-5.981,38.643-.594,58.118,6.748,24.4,17.647,46.954,29.587,69.138,8.761,16.278,18.119,32.168,28.3,47.577,15.728,23.794,34.788,44.761,55.526,64.2q14.556,13.642,29.083,27.314c14.085,13.337,27.026,27.588,37.528,43.934,2.128,3.308,4.8,6.42,5.467,10.857a42.137,42.137,0,0,1-6.714.338c-.522-4.668-3.915-7.816-6.233-11.222a247.976,247.976,0,0,0-35.848-41.458c-14.668-13.732-29.795-26.985-43.854-41.355a367.06,367.06,0,0,1-53.731-70.6c-10.374-17.582-20.271-35.417-29.053-53.843-8.725-18.306-15.956-37.245-19.059-57.338-4.612-29.876,2.406-56.788,22.461-79.934,15.935-18.391,35.516-30.934,59.148-36.761,10.569-2.605,21.444-4.73,32.328-3.905,17.391,1.317,34.427,4.969,50.5,12,20.571,9,40.938,18.458,61.485,27.51a125.9,125.9,0,0,0,37.751,10.362c11.275,1.2,21.724-.189,31.807-4.957,13.569-6.413,21.937-17.684,27.823-30.953,7.585-17.1,11.8-35.178,14.192-53.654a231.451,231.451,0,0,0,1.867-25.538c.276-16.887-.2-33.788.151-50.674.5-24.1,5.7-46.909,21.528-65.968,10.164-12.245,22.506-22.106,36.138-30.371A433.643,433.643,0,0,1,883.558,184.9c16.228-6.781,32.919-11.723,50.57-13.722a94.584,94.584,0,0,1,52.9,8.767c16.788,8.112,29.4,21.037,38.859,37.046,10.8,18.273,17.473,38.424,26.25,57.613,8.039,17.558,17.491,34.292,31.958,47.474,12.689,11.561,27.121,20.809,41.7,29.765a169.812,169.812,0,0,0,19.216,10.653A45.192,45.192,0,0,1,1145.335,369.251Z" transform="translate(221.121 88.03)" fill="#f1f1f1"/>
        <path id="Path_35" data-name="Path 35" d="M649.485,805.587c-1.513-6.678-4.959-12.5-7.982-18.318-8.4-16.179-19.373-30.513-31.745-44-12.055-13.144-25.78-24.188-39.495-35.357-7.541-6.141-15.048-12.307-22.259-18.862A296.14,296.14,0,0,1,498.136,630.1c-15.029-23.316-27.66-47.837-34.312-75.014-4.387-17.927-5.572-36.007,1.185-53.543,9.178-23.818,26.392-38.089,52.049-41.942,20.232-3.038,38.926,2.023,57.179,9.818,21.946,9.371,42.482,21.393,62.81,33.793,19.526,11.913,39.952,21.595,62.573,26.277,18.425,3.816,34.715-.239,48.374-12.94,6.8-6.322,11.684-14.412,15.659-22.9,8.332-17.754,13.294-36.54,16.691-55.744,2.072-11.714,3.423-23.548,4.926-35.359,3.548-27.881,4.286-55.841,4.517-83.9a119.151,119.151,0,0,1,10.955-50.155c6.518-13.872,16.032-25.3,27.752-35.17,12.147-10.218,25.414-18.224,40.495-23.157,12.431-4.066,25.2-6.315,38.281-5.619a83.811,83.811,0,0,1,50.481,19.869c14.139,11.772,24.071,26.635,33.177,42.224,14.21,24.341,30.242,47.265,51.246,66.335a275.8,275.8,0,0,0,27.877,21.733c19.465,13.584,39.223,26.81,56.181,43.631a5.218,5.218,0,0,0,1.841.854,74.516,74.516,0,0,1,.311,8.515,2.034,2.034,0,0,1-2.365-.645c-20.221-21-44.923-36.258-68.185-53.36a240.136,240.136,0,0,1-53.1-54.071c-10.937-15.259-19.652-31.911-30.233-47.391-9.6-14.029-21.27-25.878-36.511-33.395a79.5,79.5,0,0,0-46.462-7.479c-20.354,2.67-38.352,10.583-54.456,22.848-22.542,17.17-35.853,39.841-39.615,68.134a153.64,153.64,0,0,0-1.6,26.006c.507,13.176-.365,26.338-1.156,39.437-1.1,18.314-3.219,36.574-5.842,54.779-2.668,18.55-5.78,36.98-11.889,54.695-5.744,16.689-12.876,32.722-26.365,45.045-12.814,11.7-27.548,16.06-44.781,14.092-19.741-2.252-37.845-9.125-55.133-18.248-13.831-7.3-27.119-15.618-40.693-23.405-19.519-11.2-39.276-22.057-61.337-27.362-20.74-4.988-40.8-3.652-58.5,9.993-12.516,9.651-19.758,22.631-22.388,38.021-3.439,20.127,1.016,39.273,8.276,57.952a295.046,295.046,0,0,0,32.282,60.971,342.1,342.1,0,0,0,24.827,31.057c14.9,16.98,32.507,30.765,50.043,44.759,20.137,16.069,38.231,34.27,52.884,55.565A172.729,172.729,0,0,1,654.1,799.736a11.323,11.323,0,0,1,1.218,5.5A30.068,30.068,0,0,1,649.485,805.587Z" transform="translate(238.071 105.59)" fill="#f1f1f1"/>
        <path id="Path_36" data-name="Path 36" d="M763.549.586c1.618,3.936,5.024,6.053,7.852,8.513,23.36,20.316,49.681,36.4,75.566,53.137,12.689,8.2,24.311,17.846,32.359,31.018a84.266,84.266,0,0,1,12.7,42.288c.453,16.817-2.4,32.876-10.1,47.979-5.6,11.01-14.041,19.623-23.262,27.5-14.4,12.3-30.26,22.5-46.622,32-14.227,8.266-29.273,14.757-44.123,21.715-16.584,7.77-33.6,15.01-47.164,27.768-9.719,9.146-14.9,21.069-18.185,33.894-3.3,12.928-3.272,26.128-2.428,39.2.649,9.917.747,19.8.551,29.682-.169,8.694-1.263,17.6-5.541,25.264-5.588,10-14.773,15.038-26.22,16.756-15.522,2.329-30.153-1.249-44.783-5.394-19.136-5.422-37.955-12.076-57.595-15.54-17.151-3.024-34.334-5.439-51.411,1.041a107.569,107.569,0,0,0-33.018,20.222c-14.983,13.176-29.784,26.572-43.611,40.966-17.493,18.212-34.37,37.011-47.233,58.9-8.325,14.166-14.837,29.021-16.092,45.908-.925,12.439.954,24.354,4.272,36.091,6.969,24.657,18.849,47.126,31.638,69.167,7.189,12.391,14.255,24.86,21.095,37.446,13.858,25.5,25.556,52.086,39,77.789,9.855,18.836,19.725,37.719,33,54.482,8.684,10.969,17.719,21.659,26.524,32.532,5.007,6.189,9.965,12.422,13.564,19.918a43.914,43.914,0,0,1-6.688.32c-2.756-5.833-6.87-10.546-10.839-15.214-17.387-20.456-34.977-40.782-47.962-64.46-10.025-18.28-19.622-36.786-28.547-55.66-9.861-20.857-20.282-41.456-31.791-61.495-11.04-19.219-22.492-38.231-31.921-58.329-7.351-15.67-13.626-31.807-16.259-48.975-3.133-20.419-.819-40.231,8.358-59.089,8.8-18.077,20.664-33.951,33.455-49.313,14.725-17.685,31.491-33.371,47.949-49.31,12.14-11.755,24.492-23.573,39.566-31.779,9.262-5.042,19.066-8.7,29.666-9.652,20.7-1.861,40.7,2.227,60.48,7.62,15.36,4.188,30.572,8.922,45.933,13.108,10.567,2.878,21.272,4.509,32.325,2.451,15.134-2.82,23.413-10.969,25.587-26.377,2.015-14.275,1.617-28.723.706-42.98-.975-15.247.171-29.983,4.638-44.48,6.136-19.9,19.723-33.484,37.365-43.62,20.825-11.964,43.545-20.012,64.61-31.433a328.823,328.823,0,0,0,56.368-38.076c15.366-13.031,24.178-29.46,27.264-48.725,4.731-29.464-3.059-55.437-25.458-75.928-11.471-10.49-25.192-17.96-38.192-26.383-17.331-11.236-34.333-22.984-50-36.461C765.363,11.825,759.12,7.6,755.083.892A74.188,74.188,0,0,1,763.549.586Z" transform="translate(190.798 0.032)" fill="#f1f1f1"/>
        <path id="Path_37" data-name="Path 37" d="M409.361.855C426.186.586,442.8.586,459.836.586c9.744,5.486,19.825,9.407,29.6,13.959,17.3,8.06,35.036,15.383,49.784,27.912,8.814,7.488,17.108,15.505,21.874,26.451a41.915,41.915,0,0,1,3.262,11.476,18.043,18.043,0,0,1-4.928,15.1c-8.946,9.692-23.28,12.229-35.953,6.415a91.1,91.1,0,0,1-20.194-12.824c-15.35-12.75-32.9-21.414-51.2-28.9-12.156-4.969-23.771-11.011-31.288-22.413C413.494,26.7,409.254,14.537,409.361.855Z" transform="translate(211.723 0.032)" fill="#fff"/>
        <path id="Path_38" data-name="Path 38" d="M482.048,834.108c.919-6.58,4.423-12.316,6.7-18.531a187.78,187.78,0,0,0,9.893-42.023c3.424-27.839-2.7-53.865-13.467-79.263-9.146-21.567-20.754-41.752-32.871-61.736-13.39-22.083-27.214-43.91-39.488-66.67-9.28-17.2-18.024-34.623-24.187-53.2a225.414,225.414,0,0,1-9.126-38.644c-2.1-14.45-3.448-29.069-2.6-43.633.756-12.923,1.749-25.883,2.213-38.789.761-21.187-3.833-41.219-17.378-58.523-10.279-13.132-22.93-23.683-35.259-34.691-11.565-10.328-22.439-21.411-31.537-34.118-7.934-11.081-14.41-22.993-21-34.872-9.117-16.435-16.282-33.859-25.561-50.185-6.11-10.75-14.135-19.666-26.818-22.969-8.856-2.308-16.242,1.361-23.336,5.808-12.412,7.783-23.288,17.529-34.311,27.108-22.631,19.663-45.43,39.16-66.078,60.939-17.93,18.914-31.455,40.682-38.161,66.04-5.163,19.522-3.884,39.059,2.119,58.4,5.413,17.437,11.1,34.839,14.1,52.912a177.62,177.62,0,0,1,1.262,46.3,112.416,112.416,0,0,1-12.411,41.693c-5.99,11.467-14.173,21.364-22.544,31.077-11.121,12.9-23.665,24.453-35.6,36.579-1.566,1.591-3.1,3.2-5.705,3.758a72.479,72.479,0,0,1-.313-8.458,6.484,6.484,0,0,0,3.59-1.755c17.124-17.136,34.779-33.773,48.636-53.879,11.336-16.449,17.045-34.629,19.081-54.459,2.376-23.138-2.343-45.145-8.575-67.019-4.84-16.988-11.028-33.676-12.732-51.368-1.252-13,.508-25.914,4.1-38.493C61.461,287.678,74.3,267.455,90.617,249.1c13.786-15.513,29.3-29.137,44.753-42.872,10.912-9.7,21.567-19.709,32.781-29.047,11.29-9.4,22.111-19.586,36.082-25.241,13.858-5.61,25.671-1.684,36.326,7.613,7.007,6.115,12.059,13.72,16.182,21.991,10.888,21.839,21.621,43.76,34.145,64.737A194.334,194.334,0,0,0,330.71,293.4c15.132,13.168,30.437,26.211,41.242,43.569a78.433,78.433,0,0,1,11.964,34.272c1.633,16.544.212,32.956-.726,49.457a250.176,250.176,0,0,0,.438,35.448,245.8,245.8,0,0,0,7.354,42.546,226.2,226.2,0,0,0,13.256,36.577c14.394,31.2,33.084,59.951,50.677,89.33,10.4,17.364,21.206,34.506,29.74,52.9,7.271,15.672,14.18,31.535,17.67,48.573a157.141,157.141,0,0,1,2.7,43.894A180.888,180.888,0,0,1,489.346,830.4a13,13,0,0,0-.581,3.352A40.1,40.1,0,0,1,482.048,834.108Z" transform="translate(0.03 77.07)" fill="#f1f1f1"/>
        <path id="Path_39" data-name="Path 39" d="M.883,227.534c-.3-29.264-.3-58.33-.3-87.813,2.384-4.411,2.059-8.894,2.348-13.276,1.195-18.112.822-36.364,5.528-54.147,4.689-17.72,12.186-34.27,20.458-50.5C32.475,14.819,35.992,7.806,40.363.862,54.55.586,68.5.586,82.866.586c1.91,1.938.669,3.663-.058,5.385a288.824,288.824,0,0,1-18.6,35.816c-9.492,15.858-14.1,33.032-17.128,50.969-2.326,13.765-2.556,27.647-3.5,41.494a107.427,107.427,0,0,1-2.259,15.793A179.365,179.365,0,0,1,6.314,224.024C4.968,225.721,3.861,227.843.883,227.534Z" transform="translate(0.03 0.032)" fill="#fff"/>
        <path id="Path_40" data-name="Path 40" d="M.586,612.442c4.84-2.543,8.126-6.7,11.779-10.175,12.013-11.441,23.919-23.035,35.227-35.166,17.5-18.771,35.119-37.676,47.546-60.3,11.161-20.311,20.212-41.656,23.855-64.922,1.6-10.189,3.125-20.345,3.411-30.658.509-18.329-4.26-35.592-10.623-52.541-4.248-11.318-8.97-22.471-11.859-34.264-5.687-23.22-1.257-44.655,11.048-64.85,7.1-11.656,15.938-22,27.038-29.544,17.1-11.618,35.93-19.867,57.359-17.052,12.391,1.627,22.921,8.1,32.632,15.946,12.559,10.142,21.508,23.375,31.543,35.7,3.816,4.686,8.11,8.984,12.194,13.451,14.427,15.783,29.246,31.263,40.086,49.91,7.7,13.249,12.453,27.713,16.9,42.282,7.785,25.529,11.6,52,18.587,77.727a487.72,487.72,0,0,0,24.567,68.243c7.321,16.679,15.481,32.925,24.174,48.9,8.343,15.329,16.993,30.5,24.333,46.338,11.071,23.887,20.816,48.38,24.4,74.588,1.544,11.276.915,22.977-.325,34.521a164.479,164.479,0,0,1-9,39.071,205.325,205.325,0,0,1-16.443,34.774,58.148,58.148,0,0,0-3.134,6.7,45.138,45.138,0,0,1-6.748.32c.8-6.278,5.1-11.008,7.959-16.442,8.554-16.281,15.5-33.124,19.162-51.195,2.254-11.123,3.865-22.366,3.564-33.743-.479-18.184-5.378-35.452-11.506-52.422-4.614-12.777-9.415-25.5-15.408-37.692-4.757-9.68-9.9-19.179-15.137-28.612-11.192-20.169-21.893-40.563-31.317-61.644a532.235,532.235,0,0,1-19.925-52.1c-6.55-20.055-10.728-40.7-15.182-61.284-5.278-24.391-11.338-48.579-22.777-70.99-5.459-10.694-12.8-20.133-20.456-29.335-16.028-19.256-33.9-36.871-49.24-56.79-10.909-14.162-24.784-25.368-42.974-29.48-10.636-2.4-20.757.093-30.723,3.8-14.044,5.227-26.845,12.42-36.791,23.825-14.534,16.666-24.687,35.459-24.5,58.189.11,13.542,4.6,26.292,9.565,38.841,6.079,15.352,12.14,30.819,14.062,47.343a161.027,161.027,0,0,1-.424,37.88c-1.834,15.315-4.836,30.289-10.222,44.663-8.8,23.49-20.544,45.306-36.528,64.927-19.285,23.675-40.7,45.275-62.529,66.488C12.449,610.869,7.4,616.544.892,620.9A74.107,74.107,0,0,1,.586,612.442Z" transform="translate(0.03 109.735)" fill="#f1f1f1"/>
        <path id="Path_41" data-name="Path 41" d="M332.618,754.275c2.368-6.882,6.915-12.76,10.607-19.109,13.387-23.045,23.464-47.205,27.372-73.793,3.219-21.9,1.227-43.395-2.99-64.952-4.988-25.5-15.3-48.887-26.627-72.009-10.659-21.75-19.745-44.22-29.463-66.4-12.029-27.455-22.367-55.607-34.638-82.952-8.781-19.569-19.957-37.547-35.94-52.154-8.428-7.7-18.475-12.959-29.794-12.923-11.442.037-21.43,4.819-27.726,15.367-8.845,14.822-12.73,31.344-16.567,47.868-6.242,26.879-12.991,53.566-24.086,78.989-10.078,23.092-21.684,45.315-36.192,65.928-12.381,17.591-25.949,34.3-39.014,51.377-15.339,20.055-30.63,40.188-41,63.448-3.371,7.561-5.995,15.5-6.361,23.811-.523,11.85,4.464,21.724,12.308,30.331,12.712,13.949,28.624,23.621,44.482,33.371,15.593,9.587,31.073,19.342,45.94,30.048,1.216.871,2.532,1.547,2.96,3.441-3.253.311-6.537.311-10.23.311-.939-3.094-3.82-3.966-5.9-5.309-19.332-12.494-38.973-24.516-58.105-37.3C39.362,703.451,27.97,693.989,20.3,680.9c-7.57-12.92-7.025-26.557-2.972-40.23,5.711-19.266,16.809-35.716,28.245-51.913,19.977-28.293,42.953-54.372,62-83.331,14.914-22.669,26.584-47.049,36.089-72.463,8.807-23.55,13.688-48.155,19.63-72.481,3.046-12.469,6.813-24.7,13.007-36.1,10.906-20.089,33.015-25.52,52.563-17.006,14.28,6.219,24.3,17.352,33.444,29.512,15.2,20.212,24.209,43.467,33.531,66.635,8.54,21.224,17.615,42.233,26.5,63.317,12,28.468,25.538,56.239,38.326,84.347,7.878,17.318,12.011,36.012,15.141,54.828a198.132,198.132,0,0,1,2.6,38.769c-.693,22.2-5.86,43.447-14.508,63.851a267.357,267.357,0,0,1-23.052,42.908,7.173,7.173,0,0,0-.637,2.4A55.82,55.82,0,0,1,332.618,754.275Z" transform="translate(7.19 156.902)" fill="#f1f1f1"/>
        <path id="Path_42" data-name="Path 42" d="M556.6,911.146a17.148,17.148,0,0,1-1.412-2.9c-14.2-27.3-26.12-55.648-38.213-83.9-7.372-17.217-13.749-34.864-21.151-52.087a494.8,494.8,0,0,0-25.866-50.982c-15.076-26.245-32.09-51.407-44.615-79.081-6.935-15.324-13.7-30.717-16.9-47.412a91.193,91.193,0,0,1,5.269-52.414c7.043-17.49,18.216-32.373,28.842-47.606,11.309-16.212,22.643-32.4,33.718-48.779,10.574-15.634,19.357-32.1,25.066-50.146q11.076-35.012-11.159-64.165c-10.584-13.864-24.744-23.468-39.56-32.228C435.2,290.33,418.8,283.128,402.768,275.2c-16.889-8.349-32.1-18.889-44.571-33.02a118.647,118.647,0,0,1-21.693-36.82c-7.426-19.535-10.689-40-14.289-60.459-4.756-27.029-12.087-53.273-28.063-76.219-14.828-21.3-34.059-37.863-55.975-51.472-7.8-4.841-15.973-8.985-24.2-13.039-1.406-.693-3.188-1.028-3.643-3.275,4.136-.314,8.306-.314,12.89-.314,1.556,2.931,4.485,3.681,6.839,4.921A213.379,213.379,0,0,1,270.041,33.1c17.693,15.266,32.1,32.975,41.868,54.281,7.73,16.862,12.566,34.646,15.706,52.851,3.881,22.5,7.428,45.065,16.123,66.378,10.246,25.11,27.074,44.29,50.966,57.444C410.414,272.7,426.957,279.6,442.767,288c15.95,8.47,31.311,17.883,44.2,30.7,11.317,11.25,19.48,24.489,22.561,40.375a78.156,78.156,0,0,1-2.055,38.011c-6.668,22.072-18.028,41.646-31.335,60.27-9.006,12.6-17.775,25.379-26.43,38.226-6.757,10.028-14.42,19.435-20.509,29.916-7.6,13.086-14.125,26.645-15.99,41.864A82.537,82.537,0,0,0,416.18,600.9c7.59,25.852,19.516,49.756,32.93,72.955,15.006,25.951,31.428,51.109,44.383,78.206,9.683,20.254,17.831,41.178,26.177,62.014,5.653,14.112,11.715,28.066,17.926,41.944,6.763,15.113,13.592,30.2,21.063,44.99,1.584,3.13,4.284,5.735,4.659,9.8A42.138,42.138,0,0,1,556.6,911.146Z" transform="translate(108.654 0.032)" fill="#f1f1f1"/>
        <path id="Path_43" data-name="Path 43" d="M277.087.586c2.735,6.088,7.966,10.04,11.665,15.128,14.57,20.043,26.451,41.564,36.926,63.978,13.573,29.041,23.415,59.681,38.126,88.223,15.015,29.133,37.587,49.777,67.923,62.5,23.7,9.938,47.208,20.52,68.758,34.758a312.23,312.23,0,0,1,31.931,24.43c14.084,12.168,27.154,25.426,41.163,37.65,12.518,10.925,26,20.432,42.254,25.211,18.813,5.531,39.519.652,51.273-17.642,6.745-10.5,11.954-21.761,17.649-32.791,8.788-17.021,19.069-32.958,33.217-46.137a119.174,119.174,0,0,1,34.865-22.345c19.839-8.475,40.753-13.943,60.885-21.553,19.216-7.261,36.36-17.782,48.356-35.131,8.59-12.411,13.151-26.1,12-41.28a67.993,67.993,0,0,0-8.4-27.28c-7.292-13.535-17.3-24.9-28.259-35.575-10.92-10.65-21.3-21.885-32.483-32.243-10.546-9.76-20.568-20.027-30.749-30.134a85.315,85.315,0,0,1-7.6-9.454,58.878,58.878,0,0,1,7.576-.308,6.646,6.646,0,0,0,2.072,3c9.426,9.428,18.54,19.211,28.366,28.2,13.649,12.486,26.463,25.811,39.917,38.491a137.553,137.553,0,0,1,26.712,34c14.156,25.874,12.645,56.92-6.509,80.546-13.552,16.728-31.016,27.449-51.077,34.409-16.6,5.759-33.532,10.522-50.036,16.614-28.92,10.678-50.8,29.327-65.954,56.208-8.706,15.447-15.175,32.065-25.077,46.873-12.956,19.374-31.656,25.208-54.582,20.372-18.331-3.867-33.106-14.277-46.9-26.4-19.94-17.518-38.285-36.842-59.727-52.66a319.6,319.6,0,0,0-56.584-32.9c-18.481-8.5-37.967-15.038-54.676-27.154a136.142,136.142,0,0,1-37.687-41.778c-11.134-18.931-18.839-39.428-27.055-59.689-12-29.6-24.671-58.9-42.244-85.734-6.453-9.854-13.192-19.579-21.5-28.053-1.03-1.051-2.26-1.988-2.131-4.031A56.375,56.375,0,0,1,277.087.586Z" transform="translate(139.283 0.032)" fill="#f1f1f1"/>
        <path id="Path_44" data-name="Path 44" d="M927.709,73.274c.231,20.4.231,40.576.231,61.166-1.787,1.935-3.672,1.188-5.451.5-25.192-9.692-43.7-25.974-52.517-52.268-5.753-17.158-9.195-34.911-14.236-52.24Q852.255,18.5,848.311,6.713c-.6-1.784-1.592-3.562-.6-5.849,11.782-.278,23.36-.278,35.355-.278,4.571,8.158,7.585,16.812,11.48,25.09C902.847,43.346,913.331,59.458,927.709,73.274Z" transform="translate(438.515 0.032)" fill="#fff"/>
        <path id="Path_45" data-name="Path 45" d="M185.2,706.038c-.487-1.645-1.75-1.6-2.916-1.9A158.138,158.138,0,0,1,121.9,673.526c-17.5-14.06-34.27-28.989-45.6-48.877A53.883,53.883,0,0,1,69.32,602.44c-1.387-16.635,1.993-32.576,8.485-47.907,11.322-26.738,28.8-49.745,44.627-73.753q21.432-32.516,44.65-63.789c6.673-8.963,14.21-16.964,25.855-19.572,9.587-2.146,18.185.309,26.082,5.463,12.638,8.251,21.813,19.862,29.543,32.537,10.619,17.412,20.408,35.293,27.764,54.4,6.955,18.063,12.874,36.445,15.883,55.6a174.151,174.151,0,0,1,1.785,41.519,179.409,179.409,0,0,1-14.007,55.011,143.532,143.532,0,0,1-18.31,32.28c-9.976,12.907-21.213,24.227-36.848,30.22-.347.133-.55.64-.868,1.28C211.149,706.038,198.385,706.038,185.2,706.038Z" transform="translate(35.466 205.139)" fill="#f1f1f1"/>
        <path id="Path_46" data-name="Path 46" d="M311.351.586c.782,4.2,3.79,7.118,5.743,10.5,9.981,17.279,19.635,34.731,28.417,52.649,6.18,12.611,11.745,25.534,18.242,37.975,8.4,16.083,16.96,32.2,28.548,46.264a129.887,129.887,0,0,0,36.67,30.865c17.806,10.031,36.67,17.836,55.052,26.653a428.45,428.45,0,0,1,40.9,22.924c13.026,8.107,25.849,16.551,39.014,24.423,9.865,5.9,20.8,9.573,32.268,9.789,9.516.179,18.567-3.128,26.725-8.254,11.028-6.929,20.739-15.565,30.438-24.159,22.692-20.109,47.263-37.139,75.607-48.488,12.012-4.81,24.426-9.05,34.616-17.571,9.639-8.064,15.392-18.04,15.908-30.851.774-18.986-6.891-35.46-15.588-51.463-8.252-15.187-18.665-29.009-29.673-42.3A358.016,358.016,0,0,0,705.457,8.825,30.267,30.267,0,0,1,699.475.9a58.471,58.471,0,0,1,7.573-.31,6.476,6.476,0,0,0,2.069,3c9.566,9.254,18.63,18.994,27.257,29.111A306.244,306.244,0,0,1,769.026,78.31a141.5,141.5,0,0,1,15.259,37.612c6.171,25.481-4.455,49.114-28.082,60.69-12.858,6.3-26.208,11.568-39.237,17.518-16.447,7.509-31.405,17.414-45.508,28.7-14.72,11.777-28.1,25.185-43.778,35.8-18.674,12.638-38.219,12.292-58.153,3.732-14.191-6.094-26.661-15.215-39.546-23.555a499.362,499.362,0,0,0-70.251-37.621c-17.31-7.626-34.574-15.536-49.531-27.387a149.364,149.364,0,0,1-35.007-39.044q-9.861-16.067-18.452-32.815c-6.919-13.565-13.073-27.518-19.85-41.159Q322.687,32.184,306,4.948A6.918,6.918,0,0,1,304.636.919,42.729,42.729,0,0,1,311.351.586Z" transform="translate(157.489 0.032)" fill="#f1f1f1"/>
        <path id="Path_47" data-name="Path 47" d="M919.407,194.112c.276,36.1.276,71.985.276,108.285-1.3,1.442-2.561.8-3.735.235-23.146-11.167-40.877-27.45-49.565-52.338a52.231,52.231,0,0,1-2.9-22.712c.925-9,4.348-16.772,12.031-22.307A61.33,61.33,0,0,1,906,194.16C910.328,193.734,914.721,192.034,919.407,194.112Z" transform="translate(446.773 99.73)" fill="#fff"/>
        <path id="Path_48" data-name="Path 48" d="M342.4.586c1.389,6.514,4.355,12.395,7.024,18.232,12.659,27.686,25.369,55.337,42.634,80.641a131.457,131.457,0,0,0,49.783,43.527c14.205,7.259,28.628,14.094,42.765,21.481,17.412,9.1,33.93,19.747,50.684,29.978,9.732,5.944,19.6,11.517,30.818,14.247,11.375,2.769,21.728,0,31.237-6.149,19.955-12.911,39.708-26.131,59.647-39.067,10.536-6.835,21.169-13.6,29.762-22.825,8.275-8.883,15.689-18.5,18.152-30.907,1.987-10,.327-19.7-2.8-29.16a121.366,121.366,0,0,0-37.831-56.159c-9.47-7.939-20.359-14.1-28.882-23.541a92.809,92.809,0,0,1,9.33-.3c1.184,3.709,4.669,4.727,7.222,6.457a159.112,159.112,0,0,1,25.75,21.543c16.4,17.123,28.025,37.178,33,60.652,3.672,17.343-1.06,32.6-11.661,46.451-10.3,13.456-23.575,23.354-37.618,32.444Q630.737,187.988,600.2,208.05c-15.9,10.431-32.283,9.662-48.885,2.143-14.563-6.594-27.769-15.625-41.361-23.906a593.1,593.1,0,0,0-54.586-29.43c-12.012-5.694-23.762-11.852-34.789-19.44-13.116-9.026-23.635-20.388-32.69-33.277-21.3-30.316-36.581-63.741-50.448-97.89A55.094,55.094,0,0,1,335.685.927,41.735,41.735,0,0,1,342.4.586Z" transform="translate(173.569 0.032)" fill="#f1f1f1"/>
        <path id="Path_49" data-name="Path 49" d="M375.5.586c1.2,9.4,4.993,17.983,8.077,26.709a138.322,138.322,0,0,0,23.834,42.259,110.632,110.632,0,0,0,32.359,26.594c12.18,6.685,24.445,13.2,36.933,19.285,15.854,7.729,30.508,17.429,45.177,27.135,8.621,5.705,17.4,11.206,27.712,13.551,11.45,2.6,22.256.212,32.841-4.064,16.98-6.859,31.394-17.548,44.312-30.281,9.528-9.39,15.45-20.65,14.062-34.468-1.665-16.576-6.886-31.831-17.385-45.174C614,30.16,600.5,23.746,588.47,15.334c-5.807-4.059-11.85-7.779-17.762-11.688A3.8,3.8,0,0,1,568.876.9c3.253-.31,6.537-.31,10.23-.31,2.506,3.877,6.656,5.139,9.987,7.4,11.706,7.95,24.082,14.92,34.162,25.144,12.646,12.825,19.223,28.424,22.073,45.895,2.341,14.356,1.144,27.982-8.091,39.986a110.888,110.888,0,0,1-17.03,17.311c-8.959,7.485-18.284,14.519-29.017,19.334-9.7,4.352-19.516,8.286-30.431,8.593-12.145.343-23.164-3.3-33.056-9.8-24.114-15.836-48.839-30.5-74.845-43.076-11.517-5.57-22.841-11.741-32.885-19.942A131.573,131.573,0,0,1,390.351,57.06C380.407,40.564,374.283,22.6,369.8,4A16.585,16.585,0,0,1,369.66.964,28.365,28.365,0,0,1,375.5.586Z" transform="translate(191.164 0.032)" fill="#f1f1f1"/>
        <path id="Path_50" data-name="Path 50" d="M410.936.586c1.786,10.7,3.945,21.14,9.077,30.849a51.721,51.721,0,0,0,21.519,21.607c9.867,5.4,20.39,9.37,30.637,13.93,12.24,5.446,22.923,13.195,33.523,21.211,8.45,6.39,16.974,12.809,27.691,15.215,12.856,2.886,27.564-4.6,31.078-15.986,1.762-5.706.256-11.144-1.921-16.33-6.377-15.193-18.2-25.661-31.44-34.522-20.116-13.462-42.9-21.7-64.616-32.009-1.657-.787-3.807-1.089-4.449-3.65C467.06.586,472.118.586,477.592.586c.569,2.127,2.478,2.366,3.854,3.011,11.769,5.512,23.617,10.858,35.356,16.431a123.526,123.526,0,0,1,40.253,29.925c8.659,9.834,14.541,20.884,14.447,34.669-.076,11.17-6.751,17.578-15.272,22.031-13.888,7.259-27.607,5.108-40.678-3.078-9.89-6.193-18.826-13.7-28.461-20.242-11.945-8.112-25.323-13.308-38.4-19.044C427.5,55,413.748,39.7,408.724,16.95,407.586,11.8,406.886,6.544,405.982.962A20.4,20.4,0,0,1,410.936.586Z" transform="translate(209.974 0.032)" fill="#f1f1f1"/>
        <path id="Path_51" data-name="Path 51" d="M771.515.586c1.992,5.143,5.5,9.263,7.95,13.955,10.715,20.525,16.326,42.5,20.141,65.172,3.53,21,4.25,42.429,9.7,63.1,3.423,13,7.638,25.74,15.339,37.01a79.612,79.612,0,0,0,33.63,27.906c19.5,8.8,39.161,17.256,59.622,23.674a440.91,440.91,0,0,0,48.427,11.851,26.609,26.609,0,0,0,4.384.089,27.388,27.388,0,0,1,.391,5.834c-12.645-.848-24.9-4.025-37.16-7.115-24.854-6.26-48.525-15.731-71.938-26.039-13.027-5.737-24.791-12.869-34.617-23.332a85.777,85.777,0,0,1-17.936-29.245,199.006,199.006,0,0,1-10.955-47.656C795.6,89.905,792.03,64.111,783.5,39.3c-4.686-13.648-11.613-26.11-19.554-38.4A57.91,57.91,0,0,1,771.515.586Z" transform="translate(395.355 0.032)" fill="#f1f1f1"/>
        <path id="Path_52" data-name="Path 52" d="M.586,277.537a6.954,6.954,0,0,0,3-2.067c17.961-17.179,34.767-35.338,48.354-56.286,15.371-23.7,25.832-49.214,29.66-77.371,2.711-19.943,6.046-39.774,11.36-59.252C96.753,68.668,104.5,57.08,113.115,46.016A456.548,456.548,0,0,0,141.491,4.945,6.912,6.912,0,0,0,142.859.919a55.126,55.126,0,0,1,7.6-.333c-2.5,7.327-7.312,13.548-11.367,20.2-8.691,14.252-19.48,27.028-29,40.71-7.7,11.07-11.213,23.618-14.364,36.39-5.606,22.724-6.915,46.238-12.611,68.94C78.7,184.482,70.672,200.591,61.193,216a262.189,262.189,0,0,1-31.441,41.559c-8.38,9-17.285,17.446-25.736,26.351A5.216,5.216,0,0,1,.892,286,74.1,74.1,0,0,1,.586,277.537Z" transform="translate(0.03 0.032)" fill="#f1f1f1"/>
        <path id="Path_53" data-name="Path 53" d="M919.09,562.9c.258,18.213.2,36.235.329,54.25.027,2.508-.56,2.943-2.979,2.926-17.126-.133-34.262-.071-51.806-.071-1.609-1.707-.284-2.783.649-3.815q24.076-26.583,49.77-51.594C916.094,563.577,917.117,562.4,919.09,562.9Z" transform="translate(447.107 291.177)" fill="#fff"/>
        <path id="Path_54" data-name="Path 54" d="M.586,227.744c5.058-2.2,6.788-7.172,9.6-10.941,15.985-21.438,25.882-45.621,30.94-71.764,1.7-8.8,1.743-17.854,2.176-26.827C44.27,98.14,47.05,78.3,54.153,59.439c4.689-12.454,12.376-23.53,18.362-35.413,3.779-7.5,8.31-14.637,10.766-23.1A42.187,42.187,0,0,1,90,.586a6.624,6.624,0,0,1-.791,5.1C81.18,22,72.58,38,63.791,53.918c-5.177,9.374-7.95,19.618-9.815,30.114-2.264,12.74-4.384,25.428-4.639,38.487-.539,27.574-7.88,53.516-21.035,77.765-6.489,11.962-14.711,22.759-23.066,33.443-1.053,1.347-2.175,2.853-4.343,3.364A90.516,90.516,0,0,1,.586,227.744Z" transform="translate(0.03 0.032)" fill="#f1f1f1"/>
        <path id="Path_55" data-name="Path 55" d="M812.238.586c1.565,6.927,5.184,12.954,7.656,19.4,6.883,17.948,11.1,36.632,15.837,55.177,5.308,20.728,10.875,41.313,21.163,60.352,10.608,19.639,26.187,33.257,46.5,42.312a273.246,273.246,0,0,0,45.83,15.685,31.486,31.486,0,0,1,.347,5.875,225.3,225.3,0,0,1-55.763-19.433,95.831,95.831,0,0,1-40.762-38.73c-10.777-18.674-16.442-39.054-21.777-59.655-5.735-22.111-10.635-44.485-19.581-65.643-2.063-4.882-4.108-9.774-6.162-15A42.171,42.171,0,0,1,812.238.586Z" transform="translate(416.887 0.032)" fill="#f1f1f1"/>
        <path id="Path_56" data-name="Path 56" d="M875.23.881C887.1.617,898.768.747,910.426.527c2.97-.056,3.317.905,3.3,3.489-.1,20.226-.053,40.454-.053,61.1-2.641,1.729-3.788-.517-5.042-1.932C897.185,50.211,888.658,35.4,881.7,19.657c-2.027-4.589-4.25-9.1-5.9-13.852C875.275,4.3,874.3,2.861,875.23.881Z" transform="translate(452.784)" fill="#fff"/>
        <path id="Path_57" data-name="Path 57" d="M951.256,499.991c-1.716.367-2.605,1.666-3.619,2.7-12.191,12.465-24.489,24.828-36.511,37.457-10.866,11.425-21.626,22.97-32.083,34.778C866.167,589.469,853.673,604.34,841,619.06c-9.31,10.819-18.656,21.609-27.922,32.457a31.322,31.322,0,0,0-3.183,5.069,59.583,59.583,0,0,1-7.63.311c.062-4.242,3.655-6.473,6.02-9.31,11.426-13.662,23.4-26.861,34.857-40.5q23.315-27.764,48.018-54.27c9.479-10.136,18.807-20.4,28.562-30.267,9.141-9.247,18.1-18.673,27.166-27.986,1.12-1.142,2.036-2.592,4.064-3.03A75.172,75.172,0,0,1,951.256,499.991Z" transform="translate(415.2 254.28)" fill="#f1f1f1"/>
        <path id="Path_58" data-name="Path 58" d="M.9,79.056C.607,53.76.645,28.653.545,3.548.536,1.2.854.48,3.435.533c9.743.2,19.492.081,29.656.081,2.183,2.763.084,4.766-1.043,6.871-10.9,20.356-21.271,40.929-27.1,63.449-.481,1.861-.915,3.733-1.407,5.59C3.208,77.79,3,79.23.9,79.056Z" transform="translate(0.009 0.003)" fill="#fff"/>
        <path id="Path_59" data-name="Path 59" d="M921.4,195.645c-14.583.683-28.713,2.631-41.375,10.782-9.595,6.172-13.507,15.045-13.783,26.085-.445,18.228,7.683,33.135,18.754,46.494,9.55,11.516,22.168,19.319,36.084,25.481a33.952,33.952,0,0,1,.32,5.868c-6.465-.241-11.48-4.269-16.744-7.325-17.447-10.126-30.731-24.246-38.823-42.947-5.22-12.062-7.532-24.549-4.66-37.538,2.934-13.264,11.951-21.3,23.982-26.452,11.32-4.84,23.253-6.233,35.835-6.283A26.235,26.235,0,0,1,921.4,195.645Z" transform="translate(445.058 98.025)" fill="#f1f1f1"/>
        <path id="Path_60" data-name="Path 60" d="M849.431.586c1.743,7.579,4.82,14.645,7.087,21.943,4.971,16.042,8.243,32.514,12.9,48.623,4.811,16.607,11,32.514,24.551,44.215,10.333,8.924,21.555,16.409,35.524,19.493a30.073,30.073,0,0,1,.356,5.834c-8.919-.529-16.522-4.921-24.08-9.164-23.831-13.383-36.236-34.861-42.647-60.622-4.295-17.259-8.421-34.573-13.747-51.558-1.885-6.026-4.82-11.718-5.78-18.4A29.752,29.752,0,0,1,849.431.586Z" transform="translate(436.604 0.032)" fill="#f1f1f1"/>
        <path id="Path_61" data-name="Path 61" d="M.586,79.254a2.807,2.807,0,0,0,1.8-2.488c5.441-25.136,16.7-47.878,28.939-70.22.914-1.669,2.086-3.264,2.155-5.626A42.609,42.609,0,0,1,40.206.586c.47,3.007-1.343,5.3-2.67,7.727C25.4,30.463,14.1,52.932,8.405,77.806A140.43,140.43,0,0,0,5.243,104c-.317,8.543-1.222,17.06-1.271,25.628-.018,3.168.768,7.147-3.045,9.632C.586,119.426.586,99.549.586,79.254Z" transform="translate(0.03 0.032)" fill="#f1f1f1"/>
        <path id="Path_62" data-name="Path 62" d="M921.9,565.6c-1.894.391-2.8,1.9-3.921,3.012-9.1,9.06-18.54,17.813-27.139,27.326-7.967,8.818-16.984,16.7-24.044,26.665a59.584,59.584,0,0,1-7.63.311c-.658-1.832.382-3.023,1.565-4.224,2.8-2.828,5.4-5.86,8.092-8.768,16.5-17.766,33.657-34.909,50.926-51.931a5.228,5.228,0,0,1,1.85-.85A75.172,75.172,0,0,1,921.9,565.6Z" transform="translate(444.558 288.259)" fill="#f1f1f1"/>
        <path id="Path_63" data-name="Path 63" d="M876.974.586c1.636,5.8,4.446,10.979,6.74,16.374,5.842,13.74,12.858,26.817,22.1,38.572,2.774,3.519,4.944,7.7,9.479,9.94a59.6,59.6,0,0,1,.311,7.63c-4.713-1.52-7.656-5.59-10.724-9.206C891.113,47.629,881.661,28.824,873.9,9.129c-1.014-2.561-3.041-4.812-2.756-8.192A30.411,30.411,0,0,1,876.974.586Z" transform="translate(450.854 0.032)" fill="#f1f1f1"/>
        <path id="Path_64" data-name="Path 64" d="M.586,586.743a5.515,5.515,0,0,1,3.423.142q17.356,8.723,34.628,17.606c1.159.587,2.513,1,2.819,2.89-4.432.311-8.9.311-13.779.311-7.953-4.055-15.712-7.683-23.282-11.675a10.559,10.559,0,0,1-3.576-2.33A67.194,67.194,0,0,1,.586,586.743Z" transform="translate(0.03 303.484)" fill="#f1f1f1"/>
        <path id="Path_65" data-name="Path 65" d="M.616,591.38c9.169,3.521,18.244,7.647,26.633,13.5-8.029.311-16.1.24-24.172.365-1.972.036-2.682-.231-2.53-2.437C.8,599.151.616,595.47.616,591.38Z" transform="translate(0 305.988)" fill="#fff"/>
        <path id="Path_66" data-name="Path 66" d="M757.085,510.746a327.691,327.691,0,0,0,7.007-39.416c2.063-17.363,4.446-34.7,6.056-52.1,1.12-12.157,2.241-24.316,3.788-36.415,2.926-22.9,5.353-45.913,13.134-67.892a50.524,50.524,0,0,1,8.874-16.215c8.528-10.029,20.763-10.76,32.928-6.335a52.255,52.255,0,0,1,19.065,12.656c7.2,7.231,14.352,14.512,21.243,22.054,14.53,15.905,31.968,28.345,49.405,40.784,12.129,8.655,24.142,17.533,34.546,28.242,16.753,17.239,28.6,37.224,31.327,61.571,2.81,24.943-2.508,48.249-14.788,70.169-10.991,19.622-25.947,35.908-42.291,50.941A456.388,456.388,0,0,1,877.8,618.657c-21.475,14.829-43.376,29.091-63.757,45.434-8.5,6.819-16.593,14.176-24.614,21.591-17.117,15.808-34.261,31.544-54.3,43.847-21.475,13.2-43.972,13.289-64.4-1.116-11.8-8.324-19.945-19.976-27.237-32.2-5.149-8.65-9.577-17.645-11.089-27.781-3.361-22.584,1.28-32.9,20.95-45.043,17.242-10.641,35.844-18.821,53.211-29.26,19.465-11.7,33.515-27.705,40.673-49.465C750.887,533.589,754.372,522.474,757.085,510.746Z" transform="translate(326.715 149.801)" fill="#f1f1f1"/>
        <path id="Path_67" data-name="Path 67" d="M280.325,526.349a195.243,195.243,0,0,1,5.649,54.265c-.646,16.379-4.93,31.988-10.2,47.328a142.14,142.14,0,0,1-22.812,42.279C242.7,683.207,230.941,694.3,214.12,697.843c-12.044,2.534-23.956.347-35.608-3.023-23.23-6.714-43.394-18.875-61.844-34.334-13.773-11.54-26.517-23.9-35.772-39.44-7.365-12.367-9.561-25.648-7.1-39.922,4.12-23.865,15.572-44.361,28.709-64.114,13.318-20.025,26.663-40.034,40.283-59.853,9.347-13.6,18.9-27.078,28.912-40.192,5.482-7.182,12.2-13.329,21.563-15.487,8.017-1.847,14.731,1.394,21.16,5.418,11.852,7.416,19.848,18.463,26.947,30.082,14.761,24.161,26.868,49.6,35.3,76.7C277.942,517.755,279.024,521.893,280.325,526.349Z" transform="translate(37.444 207.367)" fill="#fff"/>
        <path id="Path_68" data-name="Path 68" d="M676.987,614.6c15.161-8.607,30.945-15.509,44.3-26.5,12.547-10.32,22.675-22.463,28.2-37.9a350.263,350.263,0,0,0,16.842-66.288c2.01-13.5,3.708-27.068,4.775-40.718,1.174-14.926,3.646-29.745,5.06-44.657,1.574-16.542,3.628-33.01,6.394-49.384,2.365-13.973,5.5-27.809,11.222-40.827,6.607-15.009,21.163-18.58,36.378-9.424,11.2,6.745,19.51,16.587,28.233,26.011a225.766,225.766,0,0,0,29.184,27.11c15.624,11.82,31.594,23.205,47,35.3,17.42,13.684,30.749,30.789,37.987,51.854a91.02,91.02,0,0,1,2.712,49.273c-4.811,22.52-15.677,41.879-30.5,59.131-19.918,23.2-43.154,42.745-67.963,60.486C855.462,623.331,833.2,637.31,812.592,653.6c-9.47,7.489-18.629,15.421-27.512,23.6-17.58,16.2-34.946,32.62-55.692,44.881-8.483,5.014-17.544,9.085-27.37,9.286-8.376.172-16.584-2.5-23.964-6.822-13.952-8.175-23.466-20.557-31.292-34.274-4.526-7.933-8.448-16.179-10.324-25.347-3.477-16.972.88-26.434,14.734-35.916A193.1,193.1,0,0,1,676.987,614.6Z" transform="translate(328.731 151.929)" fill="#fff"/>
        <path id="Path_69" data-name="Path 69" d="M208.491,526.407c-.174,18.086-4.679,34.3-14.686,49.142-16.288,24.165-46.038,20.676-60.692,5.911-11.342-11.428-15.785-24.623-15.414-40.358.638-26.988,12.833-47.792,33.708-63.754,13.808-10.559,32.33-8.946,43.517,7.573C203.35,497.359,207.258,511.209,208.491,526.407Z" transform="translate(60.669 243.484)" fill="#f1f1f1"/>
        <path id="Path_70" data-name="Path 70" d="M750.454,426.093c1.449-10.3,1.44-20.367,3.575-30.159,2.125-9.679,4.544-19.275,10.831-27.29a24.077,24.077,0,0,1,18.62-9.545c20.5-1.123,37.045,7.534,52.357,19.995,11.258,9.164,19.954,20.139,24.783,33.805,6.082,17.176,4.7,34.235-2.436,50.832C850.323,482,837.571,496.3,821.476,507.69a53.459,53.459,0,0,1-37.783,9.668c-8.5-.943-14.459-6.361-18.932-13.222-7.754-11.879-10.715-25.337-12.6-39.194C750.419,452.159,750.41,439.349,750.454,426.093Z" transform="translate(388.361 185.645)" fill="#f1f1f1"/>
        <path id="Path_71" data-name="Path 71" d="M123.943,522.723c4.784-14.966,12.069-27.961,23.726-38.217,5.4-4.756,11.4-8.481,18.714-9.323,11.146-1.282,17.8,5.638,22.78,13.945,7.23,12.062,11.709,25.295,10.872,39.561-.989,16.845-5.993,32.342-17.389,45.374-11.073,12.663-28.062,13.783-42.134,4.455-12.011-7.961-18.006-19.584-18.608-33.947C121.6,537.329,121.772,530.106,123.943,522.723Z" transform="translate(62.798 245.733)" fill="#fff"/>
        <path id="Path_72" data-name="Path 72" d="M754.553,436.229c-.1-18.491,1.156-36.355,7.06-53.612,3.2-9.363,7.9-17.542,18.647-19.142a44.357,44.357,0,0,1,23.057,2.927c19.8,7.9,36.031,20.225,46.15,39.342a55.6,55.6,0,0,1,3.877,44.6c-8.128,24.92-23.582,43.818-47.609,54.861-9.532,4.384-19.767,6.727-29.753.815-7.843-4.64-11.417-12.486-14.352-20.638-3.566-9.894-5.317-20.122-6.349-30.592C754.678,448.728,754.74,442.712,754.553,436.229Z" transform="translate(390.487 187.73)" fill="#fff"/>
      </g>
    </g>
    <rect id="Rectangle_79" data-name="Rectangle 79" width="1366" height="300" transform="translate(0 4308)" fill="url(#linear-gradient)"/>
  </g>
</svg>
